<?xml version="1.0" encoding="UTF-8" ?>
<!DOCTYPE svg PUBLIC "-//W3C//DTD SVG 1.1//EN" "http://www.w3.org/Graphics/SVG/1.1/DTD/svg11.dtd">
<svg width="142pt" height="143pt" viewBox="0 0 142 143" version="1.1" xmlns="http://www.w3.org/2000/svg">
<g id="#ff0657ff">
<path fill="#ff0657" opacity="1.00" d=" M 33.26 0.00 L 108.43 0.00 C 118.25 0.69 127.71 5.50 133.81 13.25 C 138.66 18.94 141.13 26.26 142.00 33.60 L 142.00 108.52 C 141.37 116.18 138.73 123.82 133.71 129.73 C 127.55 137.46 118.04 142.12 108.25 143.00 L 33.84 143.00 C 24.47 142.24 15.34 138.03 9.13 130.92 C 3.67 125.00 0.65 117.13 0.00 109.16 L 0.00 33.69 C 0.65 25.75 3.63 17.90 9.08 12.00 C 15.13 4.97 24.05 0.74 33.26 0.00 M 65.28 23.28 C 58.99 27.97 56.33 35.86 53.99 43.05 C 46.16 41.69 37.22 40.61 30.22 45.24 C 25.97 47.95 25.03 53.70 26.75 58.17 C 29.14 64.46 33.82 69.56 38.72 74.05 C 36.84 76.30 35.03 78.62 33.28 80.98 C 28.74 80.52 23.81 82.39 21.81 86.74 C 17.80 93.13 23.59 102.54 31.02 102.12 C 34.53 101.84 37.65 103.73 41.06 104.12 C 45.72 104.79 50.37 103.66 54.96 102.99 C 57.62 109.60 60.42 117.35 67.30 120.63 C 71.76 123.02 77.04 120.57 80.12 117.08 C 84.47 111.96 86.96 105.56 88.76 99.17 C 92.95 99.93 97.20 100.50 101.47 100.43 C 103.74 103.38 107.14 105.80 111.04 105.50 C 117.28 105.51 122.27 98.99 121.08 93.00 C 120.47 89.48 117.34 87.20 116.36 83.83 C 114.70 78.91 111.05 75.08 107.82 71.13 C 112.47 65.35 117.71 58.85 117.33 50.99 C 117.05 45.99 112.59 42.43 107.99 41.42 C 101.46 39.93 94.79 41.46 88.42 42.97 C 88.32 42.41 88.14 41.29 88.04 40.73 C 89.67 39.09 91.32 37.33 91.97 35.05 C 94.03 29.77 90.46 23.45 85.21 21.75 C 82.40 20.59 79.35 21.41 76.67 22.51 C 72.99 20.77 68.60 20.68 65.28 23.28 Z" />
<path fill="#ff0657" opacity="1.00" d=" M 80.43 25.56 C 85.09 24.19 89.84 29.37 88.06 33.91 C 86.80 38.27 80.57 39.87 77.47 36.45 C 73.78 33.22 75.76 26.61 80.43 25.56 Z" />
<path fill="#ff0657" opacity="1.00" d=" M 67.71 26.63 C 69.18 25.23 71.30 25.54 73.15 25.36 C 71.95 28.42 70.33 31.85 71.89 35.10 C 73.34 40.39 79.07 43.21 84.27 42.57 L 84.23 44.16 C 80.60 45.85 76.74 47.02 73.19 48.92 C 68.34 46.87 63.34 45.17 58.21 43.94 C 60.06 37.63 62.28 30.79 67.71 26.63 Z" />
<path fill="#ff0657" opacity="1.00" d=" M 89.66 46.98 C 95.91 45.61 102.60 44.01 108.87 46.10 C 111.77 47.00 113.61 50.09 113.07 53.08 C 112.29 58.93 108.59 63.90 104.78 68.21 C 100.62 64.61 96.22 61.28 91.53 58.40 C 90.94 54.58 90.37 50.77 89.66 46.98 Z" />
<path fill="#ff0657" opacity="1.00" d=" M 34.55 47.56 C 40.41 45.22 46.90 46.27 52.98 46.99 C 51.92 52.18 51.27 57.44 50.78 62.72 C 47.49 65.31 44.39 68.12 41.37 71.02 C 36.70 66.15 30.96 61.12 30.21 54.00 C 29.74 51.07 31.94 48.53 34.55 47.56 Z" />
<path fill="#ff0657" opacity="1.00" d=" M 57.18 48.10 C 60.85 49.04 64.47 50.15 68.06 51.37 C 63.68 53.87 59.38 56.53 55.23 59.40 C 55.69 55.60 56.31 51.82 57.18 48.10 Z" />
<path fill="#ff0657" opacity="1.00" d=" M 78.36 51.10 C 80.76 50.16 83.17 49.22 85.58 48.30 C 86.06 50.72 86.53 53.15 86.94 55.59 C 84.06 54.12 81.23 52.57 78.36 51.10 Z" />
<path fill="#ff0657" opacity="1.00" d=" M 54.80 65.01 C 60.52 60.59 66.72 56.82 73.17 53.57 C 78.11 55.57 82.82 58.06 87.40 60.76 C 88.14 68.26 88.11 75.83 87.30 83.32 C 83.33 86.07 79.15 88.52 74.87 90.76 C 67.94 88.16 61.36 84.79 55.00 81.03 C 54.69 75.69 54.74 70.35 54.80 65.01 M 68.24 62.30 C 64.07 63.63 60.78 67.60 60.72 72.05 C 60.32 77.43 64.57 82.68 70.00 83.14 C 75.90 84.06 81.85 79.05 81.89 73.08 C 82.60 66.04 74.92 60.05 68.24 62.30 Z" />
<path fill="#ff0657" opacity="1.00" d=" M 91.92 63.70 C 95.45 65.98 98.78 68.58 101.95 71.35 C 98.73 74.45 95.38 77.41 91.83 80.12 C 92.06 74.65 92.01 69.17 91.92 63.70 Z" />
<path fill="#ff0657" opacity="1.00" d=" M 69.33 66.46 C 73.43 64.99 78.18 68.57 77.56 72.97 C 77.78 77.98 71.07 80.73 67.40 77.64 C 63.46 74.84 64.57 67.72 69.33 66.46 Z" />
<path fill="#ff0657" opacity="1.00" d=" M 44.65 73.70 C 46.61 71.85 48.58 70.02 50.57 68.21 C 50.60 71.54 50.64 74.88 50.67 78.22 C 48.61 76.79 46.60 75.28 44.65 73.70 Z" />
<path fill="#ff0657" opacity="1.00" d=" M 91.30 85.64 C 96.18 82.27 100.70 78.42 104.97 74.32 C 107.83 77.12 110.13 80.41 112.09 83.89 C 109.11 84.13 105.94 84.56 103.75 86.82 C 100.82 89.05 100.14 92.86 99.90 96.31 C 96.49 96.13 93.10 95.69 89.74 95.08 C 90.36 91.95 90.86 88.80 91.30 85.64 Z" />
<path fill="#ff0657" opacity="1.00" d=" M 41.58 76.79 C 44.75 79.08 47.84 81.49 51.14 83.58 C 51.62 88.73 52.54 93.83 53.71 98.87 C 48.81 99.84 43.77 100.36 38.80 99.53 C 40.40 96.95 42.07 94.15 41.74 90.98 C 41.74 87.61 39.60 84.83 37.32 82.56 C 38.73 80.63 40.15 78.71 41.58 76.79 Z" />
<path fill="#ff0657" opacity="1.00" d=" M 29.38 85.43 C 33.80 83.85 38.71 88.44 37.46 92.98 C 36.73 98.08 29.25 99.80 26.24 95.74 C 23.34 92.39 25.03 86.53 29.38 85.43 Z" />
<path fill="#ff0657" opacity="1.00" d=" M 55.58 86.29 C 60.18 88.80 64.82 91.24 69.64 93.28 C 65.81 94.97 61.92 96.52 57.93 97.81 C 57.02 94.00 56.18 90.17 55.58 86.29 Z" />
<path fill="#ff0657" opacity="1.00" d=" M 109.44 88.49 C 114.11 87.37 118.48 92.48 116.77 96.94 C 115.58 101.28 109.58 102.90 106.41 99.67 C 102.33 96.52 104.41 89.24 109.44 88.49 Z" />
<path fill="#ff0657" opacity="1.00" d=" M 80.25 92.77 C 82.40 91.41 84.56 90.05 86.73 88.71 C 86.39 90.52 86.04 92.32 85.69 94.13 C 83.88 93.65 82.06 93.22 80.25 92.77 Z" />
<path fill="#ff0657" opacity="1.00" d=" M 59.09 101.94 C 64.55 100.06 69.93 97.95 75.14 95.46 C 78.25 96.53 81.40 97.46 84.57 98.34 C 82.84 104.13 80.96 110.24 76.63 114.66 C 74.75 116.56 71.83 118.37 69.17 116.96 C 63.50 114.01 61.16 107.58 59.09 101.94 Z" />
</g>
<g id="#ffffffff">
<path fill="#ffffff" opacity="1.00" d=" M 65.28 23.28 C 68.60 20.68 72.99 20.77 76.67 22.51 C 79.35 21.41 82.40 20.59 85.21 21.75 C 90.46 23.45 94.03 29.77 91.97 35.05 C 91.32 37.33 89.67 39.09 88.04 40.73 C 88.14 41.29 88.32 42.41 88.42 42.97 C 94.79 41.46 101.46 39.93 107.99 41.42 C 112.59 42.43 117.05 45.99 117.33 50.99 C 117.71 58.85 112.47 65.35 107.82 71.13 C 111.05 75.08 114.70 78.91 116.36 83.83 C 117.34 87.20 120.47 89.48 121.08 93.00 C 122.27 98.99 117.28 105.51 111.04 105.50 C 107.14 105.80 103.74 103.38 101.47 100.43 C 97.20 100.50 92.95 99.93 88.76 99.17 C 86.96 105.56 84.47 111.96 80.12 117.08 C 77.04 120.57 71.76 123.02 67.30 120.63 C 60.42 117.35 57.62 109.60 54.96 102.99 C 50.37 103.66 45.72 104.79 41.06 104.12 C 37.65 103.73 34.53 101.84 31.02 102.12 C 23.59 102.54 17.80 93.13 21.81 86.74 C 23.81 82.39 28.74 80.52 33.28 80.98 C 35.03 78.62 36.84 76.30 38.72 74.05 C 33.82 69.56 29.14 64.46 26.75 58.17 C 25.03 53.70 25.97 47.95 30.22 45.24 C 37.22 40.61 46.16 41.69 53.99 43.05 C 56.33 35.86 58.99 27.97 65.28 23.28 M 80.43 25.56 C 75.76 26.61 73.78 33.22 77.47 36.45 C 80.57 39.87 86.80 38.27 88.06 33.91 C 89.84 29.37 85.09 24.19 80.43 25.56 M 67.71 26.63 C 62.28 30.79 60.06 37.63 58.21 43.94 C 63.34 45.17 68.34 46.87 73.19 48.92 C 76.74 47.02 80.60 45.85 84.23 44.16 L 84.27 42.57 C 79.07 43.21 73.34 40.39 71.89 35.10 C 70.33 31.85 71.95 28.42 73.15 25.36 C 71.30 25.54 69.18 25.23 67.71 26.63 M 89.66 46.98 C 90.37 50.77 90.94 54.58 91.53 58.40 C 96.22 61.28 100.62 64.61 104.78 68.21 C 108.59 63.90 112.29 58.93 113.07 53.08 C 113.61 50.09 111.77 47.00 108.87 46.10 C 102.60 44.01 95.91 45.61 89.66 46.98 M 34.55 47.56 C 31.94 48.53 29.74 51.07 30.21 54.00 C 30.96 61.12 36.70 66.15 41.37 71.02 C 44.39 68.12 47.49 65.31 50.78 62.72 C 51.27 57.44 51.92 52.18 52.98 46.99 C 46.90 46.27 40.41 45.22 34.55 47.56 M 57.18 48.10 C 56.31 51.82 55.69 55.60 55.23 59.40 C 59.38 56.53 63.68 53.87 68.06 51.37 C 64.47 50.15 60.85 49.04 57.18 48.10 M 78.36 51.10 C 81.23 52.57 84.06 54.12 86.94 55.59 C 86.53 53.15 86.06 50.72 85.58 48.30 C 83.17 49.22 80.76 50.16 78.36 51.10 M 54.80 65.01 C 54.74 70.35 54.69 75.69 55.00 81.03 C 61.36 84.79 67.94 88.16 74.87 90.76 C 79.15 88.52 83.33 86.07 87.30 83.32 C 88.11 75.83 88.14 68.26 87.40 60.76 C 82.82 58.06 78.11 55.57 73.17 53.57 C 66.72 56.82 60.52 60.59 54.80 65.01 M 91.92 63.70 C 92.01 69.17 92.06 74.65 91.83 80.12 C 95.38 77.41 98.73 74.45 101.95 71.35 C 98.78 68.58 95.45 65.98 91.92 63.70 M 44.65 73.70 C 46.60 75.28 48.61 76.79 50.67 78.22 C 50.64 74.88 50.60 71.54 50.57 68.21 C 48.58 70.02 46.61 71.85 44.65 73.70 M 91.30 85.64 C 90.86 88.80 90.36 91.95 89.74 95.08 C 93.10 95.69 96.49 96.13 99.90 96.31 C 100.14 92.86 100.82 89.05 103.75 86.82 C 105.94 84.56 109.11 84.13 112.09 83.89 C 110.13 80.41 107.83 77.12 104.97 74.32 C 100.70 78.42 96.18 82.27 91.30 85.64 M 41.58 76.79 C 40.15 78.71 38.73 80.63 37.32 82.56 C 39.60 84.83 41.74 87.61 41.74 90.98 C 42.07 94.15 40.40 96.95 38.80 99.53 C 43.77 100.36 48.81 99.84 53.71 98.87 C 52.54 93.83 51.62 88.73 51.14 83.58 C 47.84 81.49 44.75 79.08 41.58 76.79 M 29.38 85.43 C 25.03 86.53 23.34 92.39 26.24 95.74 C 29.25 99.80 36.73 98.08 37.46 92.98 C 38.71 88.44 33.80 83.85 29.38 85.43 M 55.58 86.29 C 56.18 90.17 57.02 94.00 57.93 97.81 C 61.92 96.52 65.81 94.97 69.64 93.28 C 64.82 91.24 60.18 88.80 55.58 86.29 M 109.44 88.49 C 104.41 89.24 102.33 96.52 106.41 99.67 C 109.58 102.90 115.58 101.28 116.77 96.94 C 118.48 92.48 114.11 87.37 109.44 88.49 M 80.25 92.77 C 82.06 93.22 83.88 93.65 85.69 94.13 C 86.04 92.32 86.39 90.52 86.73 88.71 C 84.56 90.05 82.40 91.41 80.25 92.77 M 59.09 101.94 C 61.16 107.58 63.50 114.01 69.17 116.96 C 71.83 118.37 74.75 116.56 76.63 114.66 C 80.96 110.24 82.84 104.13 84.57 98.34 C 81.40 97.46 78.25 96.53 75.14 95.46 C 69.93 97.95 64.55 100.06 59.09 101.94 Z" />
<path fill="#ffffff" opacity="1.00" d=" M 68.24 62.30 C 74.92 60.05 82.60 66.04 81.89 73.08 C 81.85 79.05 75.90 84.06 70.00 83.14 C 64.57 82.68 60.32 77.43 60.72 72.05 C 60.78 67.60 64.07 63.63 68.24 62.30 M 69.33 66.46 C 64.57 67.72 63.46 74.84 67.40 77.64 C 71.07 80.73 77.78 77.98 77.56 72.97 C 78.18 68.57 73.43 64.99 69.33 66.46 Z" />
</g>
</svg>
