<svg width="121" height="121" viewBox="0 0 121 121" fill="none" xmlns="http://www.w3.org/2000/svg">
<rect x="0.5" y="0.329224" width="120" height="120" rx="60" fill="#E00043" fill-opacity="0.8"/>
<path d="M51.6663 16.1625V24.9959H55.6855C54.5372 32.9017 47.2497 40.4542 42.833 47.0792V68.1467C44.2094 69.3918 45.3096 70.9116 46.0626 72.608C46.8155 74.3044 47.2046 76.1399 47.2046 77.9959C47.2046 79.8519 46.8155 81.6873 46.0626 83.3837C45.3096 85.0802 44.2094 86.5999 42.833 87.845V95.6625C42.833 98.0053 43.7637 100.252 45.4202 101.909C47.0768 103.565 49.3236 104.496 51.6663 104.496H69.333C74.2355 104.496 78.1663 100.565 78.1663 95.6625V87.845C76.7899 86.5999 75.6897 85.0802 74.9368 83.3837C74.1838 81.6873 73.7948 79.8519 73.7948 77.9959C73.7948 76.1399 74.1838 74.3044 74.9368 72.608C75.6897 70.9116 76.7899 69.3918 78.1663 68.1467V47.0792C73.7497 40.4542 66.4622 32.9017 65.3138 24.9959H69.333V16.1625H51.6663ZM60.4997 36.0375C61.5597 38.2459 67.3013 44.8709 68.8913 46.6817L69.333 47.0792V64.7459C66.4622 68.5884 64.9163 73.2259 64.9163 77.9959C64.9163 82.7659 66.4622 87.4034 69.333 91.2459V95.6625H51.6663V91.2459C54.5372 87.4034 56.083 82.7659 56.083 77.9959C56.083 73.2259 54.5372 68.5884 51.6663 64.7459V47.0792L52.108 46.6817C53.698 44.8709 59.4397 38.2459 60.4997 36.0375Z" fill="white"/>
</svg>
