<svg width="474" height="64" viewBox="0 0 474 64" fill="none" xmlns="http://www.w3.org/2000/svg">
<path d="M14.9904 0H48.8699C53.2958 0.308811 57.5594 2.46154 60.3087 5.93007C62.4946 8.47664 63.6079 11.7527 64 15.0378V48.5684C63.7161 51.9966 62.5262 55.4159 60.2637 58.061C57.4873 61.5206 53.2011 63.6062 48.7887 64H15.2518C11.0287 63.6599 6.9138 61.7757 4.11493 58.5936C1.65408 55.9441 0.292958 52.4218 0 48.8548V15.078C0.292958 11.5245 1.63606 8.01119 4.09239 5.37063C6.81915 2.22434 10.8394 0.331189 14.9904 0ZM29.422 10.419C26.587 12.518 25.3882 16.0492 24.3335 19.2671C20.8045 18.6585 16.7752 18.1751 13.6203 20.2473C11.7048 21.4601 11.2811 24.0336 12.0563 26.0341C13.1335 28.8492 15.2428 31.1317 17.4513 33.1413C16.6039 34.1483 15.7882 35.1866 14.9994 36.2428C12.9532 36.0369 10.7313 36.8738 9.82986 38.8207C8.02253 41.6806 10.6321 45.892 13.9808 45.7041C15.5628 45.5787 16.969 46.4246 18.5059 46.5992C20.6062 46.899 22.702 46.3933 24.7707 46.0934C25.9696 49.0517 27.2316 52.5203 30.3324 53.9882C32.3425 55.0579 34.7223 53.9614 36.1104 52.3994C38.071 50.108 39.1932 47.2436 40.0045 44.3838C41.893 44.7239 43.8085 44.979 45.733 44.9477C46.7561 46.268 48.2885 47.351 50.0462 47.2168C52.8586 47.2213 55.1076 44.3032 54.5713 41.6224C54.2963 40.047 52.8856 39.0266 52.4439 37.5183C51.6958 35.3164 50.0507 33.6022 48.5949 31.8344C50.6907 29.2476 53.0524 26.3385 52.8811 22.8207C52.7549 20.5829 50.7448 18.9896 48.6715 18.5376C45.7284 17.8708 42.7223 18.5555 39.8513 19.2313C39.8062 18.9807 39.7251 18.4794 39.68 18.2288C40.4146 17.4948 41.1583 16.7071 41.4513 15.6867C42.3797 13.3236 40.7707 10.4951 38.4045 9.73427C37.138 9.2151 35.7634 9.5821 34.5555 10.0744C32.8969 9.29566 30.9183 9.25538 29.422 10.419Z" fill="#FF0657"/>
<path d="M36.2501 11.4394C38.3504 10.8263 40.4913 13.1446 39.689 15.1765C39.1211 17.1278 36.3132 17.8439 34.916 16.3133C33.253 14.8677 34.1453 11.9094 36.2501 11.4394Z" fill="#FF0657"/>
<path d="M30.5172 11.9183C31.1797 11.2917 32.1352 11.4305 32.969 11.3499C32.4282 12.7194 31.698 14.2545 32.4011 15.7091C33.0547 18.0766 35.6372 19.3387 37.9809 19.0523L37.9628 19.7639C36.3268 20.5203 34.5871 21.0439 32.9871 21.8943C30.8011 20.9768 28.5476 20.2159 26.2355 19.6655C27.0693 16.8414 28.0699 13.7801 30.5172 11.9183Z" fill="#FF0657"/>
<path d="M40.4101 21.026C43.227 20.4129 46.2423 19.6968 49.0682 20.6322C50.3752 21.035 51.2045 22.4179 50.9611 23.7561C50.6096 26.3743 48.942 28.5986 47.2248 30.5276C45.3499 28.9164 43.3668 27.426 41.253 26.1371C40.987 24.4274 40.7301 22.7222 40.4101 21.026Z" fill="#FF0657"/>
<path d="M15.5718 21.2856C18.213 20.2383 21.138 20.7083 23.8783 21.0305C23.4006 23.3533 23.1076 25.7074 22.8868 28.0705C21.404 29.2296 20.0068 30.4873 18.6456 31.7852C16.5409 29.6056 13.9538 27.3544 13.6158 24.1678C13.404 22.8565 14.3955 21.7197 15.5718 21.2856Z" fill="#FF0657"/>
<path d="M25.7713 21.5273C27.4254 21.948 29.0569 22.4448 30.6749 22.9908C28.7008 24.1096 26.7628 25.3001 24.8924 26.5846C25.0997 24.8839 25.3792 23.1922 25.7713 21.5273Z" fill="#FF0657"/>
<path d="M35.3172 22.8699C36.3989 22.4492 37.4851 22.0285 38.5713 21.6168C38.7876 22.6999 38.9995 23.7874 39.1842 24.8794C37.8862 24.2215 36.6107 23.5278 35.3172 22.8699Z" fill="#FF0657"/>
<path d="M24.6986 29.0954C27.2766 27.1172 30.071 25.4299 32.978 23.9754C35.2045 24.8705 37.3273 25.9849 39.3915 27.1933C39.7251 30.5499 39.7115 33.9379 39.3465 37.2901C37.5572 38.5208 35.6732 39.6173 33.7442 40.6199C30.6208 39.4562 27.6552 37.948 24.7887 36.2652C24.649 33.8752 24.6715 31.4853 24.6986 29.0954ZM30.7561 27.8825C28.8766 28.4778 27.3938 30.2545 27.3668 32.2462C27.1865 34.654 29.102 37.0036 31.5493 37.2095C34.2084 37.6213 36.8901 35.379 36.9082 32.7071C37.2282 29.5564 33.7668 26.8755 30.7561 27.8825Z" fill="#FF0657"/>
<path d="M41.4287 28.5091C43.0197 29.5295 44.5206 30.6931 45.9493 31.9329C44.498 33.3203 42.9882 34.645 41.3882 35.8579C41.4918 33.4098 41.4693 30.9572 41.4287 28.5091Z" fill="#FF0657"/>
<path d="M31.2473 29.7443C33.0952 29.0864 35.236 30.6887 34.9566 32.6579C35.0558 34.9001 32.0315 36.1309 30.3774 34.748C28.6017 33.4948 29.102 30.3083 31.2473 29.7443Z" fill="#FF0657"/>
<path d="M20.1239 32.9846C21.0073 32.1566 21.8952 31.3376 22.7921 30.5276C22.8056 32.0179 22.8237 33.5127 22.8372 35.0076C21.9087 34.3676 21.0028 33.6917 20.1239 32.9846Z" fill="#FF0657"/>
<path d="M41.1493 38.3284C43.3487 36.8201 45.3859 35.0971 47.3104 33.2621C48.5994 34.5152 49.6361 35.9877 50.5194 37.5452C49.1763 37.6526 47.7476 37.845 46.7606 38.8565C45.44 39.8545 45.1335 41.5597 45.0254 43.1038C43.4885 43.0232 41.9606 42.8263 40.4462 42.5533C40.7256 41.1524 40.951 39.7427 41.1493 38.3284Z" fill="#FF0657"/>
<path d="M18.7403 34.3676C20.169 35.3924 21.5617 36.4711 23.049 37.4064C23.2654 39.7113 23.68 41.9938 24.2073 44.2495C21.9989 44.6836 19.7273 44.9164 17.4873 44.5449C18.2085 43.3902 18.9611 42.1371 18.8124 40.7183C18.8124 39.2101 17.8479 37.9659 16.8203 36.9499C17.4558 36.0862 18.0958 35.2269 18.7403 34.3676Z" fill="#FF0657"/>
<path d="M13.2417 38.2344C15.2338 37.5273 17.4468 39.5815 16.8834 41.6134C16.5544 43.8959 13.1831 44.6657 11.8265 42.8487C10.5194 41.3494 11.2811 38.7267 13.2417 38.2344Z" fill="#FF0657"/>
<path d="M25.0501 38.6193C27.1234 39.7427 29.2146 40.8347 31.387 41.7477C29.6608 42.5041 27.9076 43.1978 26.1093 43.7751C25.6992 42.0699 25.3206 40.3558 25.0501 38.6193Z" fill="#FF0657"/>
<path d="M49.3251 39.6039C51.4299 39.1027 53.3994 41.3896 52.6287 43.3857C52.0924 45.3281 49.3882 46.0531 47.9594 44.6076C46.1206 43.1978 47.058 39.9396 49.3251 39.6039Z" fill="#FF0657"/>
<path d="M36.169 41.5194C37.138 40.9108 38.1115 40.3021 39.0896 39.7024C38.9363 40.5124 38.7786 41.318 38.6208 42.1281C37.8051 41.9133 36.9848 41.7208 36.169 41.5194Z" fill="#FF0657"/>
<path d="M26.6321 45.6235C29.093 44.7821 31.5177 43.8378 33.8659 42.7234C35.2676 43.2022 36.6873 43.6185 38.1161 44.0123C37.3363 46.6036 36.489 49.3382 34.5375 51.3164C33.6901 52.1667 32.3741 52.9768 31.1752 52.3457C28.6197 51.0255 27.5651 48.1477 26.6321 45.6235Z" fill="#FF0657"/>
<path d="M29.422 10.419C30.9183 9.25539 32.8969 9.29567 34.5555 10.0744C35.7634 9.58211 37.138 9.21511 38.4045 9.73427C40.7707 10.4951 42.3797 13.3236 41.4513 15.6867C41.1583 16.7071 40.4146 17.4948 39.68 18.2288C39.7251 18.4794 39.8062 18.9807 39.8513 19.2313C42.7223 18.5555 45.7284 17.8708 48.6715 18.5376C50.7448 18.9896 52.7549 20.5829 52.8811 22.8207C53.0524 26.3385 50.6907 29.2476 48.5949 31.8344C50.0507 33.6022 51.6958 35.3164 52.4439 37.5183C52.8856 39.0266 54.2963 40.047 54.5713 41.6224C55.1076 44.3032 52.8586 47.2213 50.0462 47.2168C48.2884 47.351 46.7561 46.268 45.733 44.9477C43.8084 44.979 41.893 44.7239 40.0045 44.3838C39.1932 47.2436 38.071 50.108 36.1104 52.3994C34.7223 53.9614 32.3425 55.0579 30.3324 53.9883C27.2315 52.5203 25.9696 49.0517 24.7707 46.0934C22.702 46.3933 20.6062 46.899 18.5059 46.5992C16.969 46.4246 15.5628 45.5787 13.9808 45.7041C10.6321 45.892 8.02253 41.6806 9.82986 38.8207C10.7313 36.8738 12.9532 36.0369 14.9994 36.2428C15.7882 35.1866 16.6039 34.1483 17.4513 33.1413C15.2428 31.1317 13.1335 28.8492 12.0563 26.0341C11.2811 24.0336 11.7048 21.4601 13.6203 20.2473C16.7752 18.1751 20.8045 18.6585 24.3335 19.2671C25.3882 16.0492 26.587 12.518 29.422 10.419ZM36.2501 11.4394C34.1453 11.9094 33.253 14.8677 34.9161 16.3133C36.3132 17.8439 39.1211 17.1278 39.689 15.1765C40.4913 13.1446 38.3504 10.8263 36.2501 11.4394ZM30.5172 11.9183C28.0699 13.7801 27.0693 16.8414 26.2355 19.6655C28.5476 20.2159 30.8011 20.9768 32.987 21.8943C34.587 21.0439 36.3268 20.5203 37.9628 19.7639L37.9808 19.0523C35.6372 19.3387 33.0546 18.0766 32.4011 15.7091C31.698 14.2545 32.4282 12.7194 32.969 11.3499C32.1352 11.4305 31.1797 11.2917 30.5172 11.9183ZM40.4101 21.026C40.7301 22.7222 40.987 24.4274 41.253 26.1371C43.3668 27.426 45.3499 28.9164 47.2248 30.5276C48.942 28.5986 50.6096 26.3743 50.9611 23.7561C51.2045 22.4179 50.3752 21.035 49.0682 20.6322C46.2423 19.6968 43.227 20.4129 40.4101 21.026ZM15.5718 21.2856C14.3955 21.7197 13.4039 22.8565 13.6158 24.1678C13.9538 27.3544 16.5408 29.6056 18.6456 31.7852C20.0068 30.4873 21.4039 29.2296 22.8868 28.0705C23.1076 25.7074 23.4006 23.3533 23.8783 21.0305C21.138 20.7083 18.213 20.2383 15.5718 21.2856ZM25.7713 21.5273C25.3792 23.1922 25.0997 24.8839 24.8924 26.5846C26.7628 25.3001 28.7008 24.1096 30.6749 22.9908C29.0569 22.4448 27.4253 21.948 25.7713 21.5273ZM35.3172 22.8699C36.6107 23.5278 37.8862 24.2215 39.1842 24.8794C38.9994 23.7874 38.7876 22.6999 38.5713 21.6168C37.4851 22.0285 36.3989 22.4492 35.3172 22.8699ZM24.6986 29.0954C24.6715 31.4853 24.649 33.8752 24.7887 36.2652C27.6552 37.948 30.6208 39.4562 33.7442 40.6199C35.6732 39.6173 37.5572 38.5208 39.3465 37.2901C39.7115 33.9379 39.7251 30.5499 39.3915 27.1933C37.3273 25.9849 35.2045 24.8705 32.978 23.9754C30.071 25.4299 27.2766 27.1172 24.6986 29.0954ZM41.4287 28.5091C41.4693 30.9572 41.4918 33.4098 41.3882 35.8579C42.9882 34.645 44.498 33.3203 45.9493 31.9329C44.5206 30.6931 43.0197 29.5295 41.4287 28.5091ZM20.1239 32.9846C21.0028 33.6917 21.9087 34.3676 22.8372 35.0076C22.8237 33.5127 22.8056 32.0179 22.7921 30.5276C21.8952 31.3376 21.0073 32.1566 20.1239 32.9846ZM41.1493 38.3284C40.951 39.7427 40.7256 41.1524 40.4462 42.5533C41.9606 42.8263 43.4884 43.0232 45.0254 43.1038C45.1335 41.5597 45.44 39.8545 46.7606 38.8565C47.7476 37.845 49.1763 37.6526 50.5194 37.5452C49.6361 35.9877 48.5994 34.5152 47.3104 33.2621C45.3859 35.0971 43.3487 36.8201 41.1493 38.3284ZM18.7403 34.3676C18.0958 35.2269 17.4558 36.0862 16.8203 36.9499C17.8479 37.9659 18.8124 39.2101 18.8124 40.7183C18.9611 42.1371 18.2084 43.3902 17.4873 44.5449C19.7273 44.9164 21.9989 44.6836 24.2073 44.2495C23.68 41.9938 23.2653 39.7113 23.049 37.4064C21.5617 36.471 20.169 35.3924 18.7403 34.3676ZM13.2417 38.2344C11.2811 38.7267 10.5194 41.3494 11.8265 42.8487C13.1831 44.6657 16.5544 43.8959 16.8834 41.6134C17.4468 39.5815 15.2338 37.5273 13.2417 38.2344ZM25.0501 38.6193C25.3206 40.3558 25.6992 42.0699 26.1093 43.7751C27.9076 43.1978 29.6608 42.5041 31.387 41.7477C29.2146 40.8347 27.1234 39.7427 25.0501 38.6193ZM49.3251 39.6039C47.058 39.9396 46.1206 43.1978 47.9594 44.6076C49.3882 46.0531 52.0924 45.3281 52.6287 43.3857C53.3994 41.3897 51.4299 39.1027 49.3251 39.6039ZM36.169 41.5194C36.9848 41.7208 37.8051 41.9133 38.6208 42.1281C38.7786 41.318 38.9363 40.5124 39.0896 39.7024C38.1115 40.3021 37.138 40.9108 36.169 41.5194ZM26.6321 45.6235C27.5651 48.1477 28.6197 51.0255 31.1752 52.3457C32.3741 52.9768 33.6901 52.1667 34.5375 51.3164C36.489 49.3382 37.3363 46.6036 38.1161 44.0123C36.6873 43.6185 35.2676 43.2022 33.8659 42.7234C31.5177 43.8378 29.093 44.7821 26.6321 45.6235Z" fill="white"/>
<path d="M30.756 27.8825C33.7667 26.8755 37.2282 29.5564 36.9082 32.7071C36.8901 35.379 34.2084 37.6213 31.5493 37.2095C29.102 37.0036 27.1865 34.654 27.3668 32.2462C27.3938 30.2545 28.8766 28.4778 30.756 27.8825ZM31.2473 29.7443C29.102 30.3083 28.6017 33.4948 30.3775 34.748C32.0315 36.1309 35.0558 34.9001 34.9566 32.6579C35.236 30.6887 33.0952 29.0864 31.2473 29.7443Z" fill="white"/>
<path d="M129.166 6C132.596 6 136.016 6 139.436 6C139.436 22.33 139.436 38.67 139.436 55C136.016 55 132.596 55 129.166 55C129.166 38.67 129.166 22.33 129.166 6Z" fill="#393939"/>
<path d="M400.166 6C403.586 6 407.016 6 410.436 6C410.426 11.59 410.456 17.19 410.416 22.79C416.056 16.84 426.076 17.38 432.256 22.18C441.156 29.28 441.156 44.72 432.256 51.82C425.906 56.74 415.776 57.08 409.966 51.11C409.986 52.08 410.036 54.02 410.066 54.99C406.766 55 403.466 55 400.166 55C400.166 38.67 400.166 22.33 400.166 6ZM415.906 27.56C410.186 29.87 409.016 37.57 411.616 42.6C414.006 47.28 420.766 48.49 424.826 45.33C429.216 41.78 429.646 34.57 426.316 30.19C424.016 26.98 419.446 26.21 415.906 27.56Z" fill="#393939"/>
<path d="M84.7363 16.24C94.3163 5.35001 113.576 5.05 123.196 16.06C120.886 18.3 118.596 20.54 116.286 22.77C111.626 16.67 102.396 15.03 96.0663 19.47C87.6763 24.92 87.6863 39.08 96.0663 44.53C102.326 48.86 111.466 47.43 116.276 41.58C118.586 43.7 120.876 45.83 123.206 47.93C113.546 58.92 94.2563 58.7 84.6863 47.7C77.0863 39.08 77.1063 24.84 84.7363 16.24Z" fill="#393939"/>
<path d="M319.966 9C323.496 9 327.036 9 330.566 9C330.566 21.51 330.566 34.03 330.576 46.54C338.326 46.52 346.086 46.54 353.836 46.53C353.836 49.35 353.836 52.17 353.836 55C342.546 55 331.256 55 319.966 55C319.966 39.67 319.966 24.33 319.966 9Z" fill="#393939"/>
<path d="M282.016 23.32C285.056 19.83 289.696 18.54 294.166 18.38C294.166 21.41 294.156 24.44 294.186 27.46C289.476 26.71 283.756 28.97 282.836 34.12C281.996 41.04 282.626 48.05 282.436 55C279.016 55 275.586 55 272.166 55C272.166 43 272.166 31 272.166 19C275.456 19 278.746 19 282.036 19C282.036 20.44 282.026 21.88 282.016 23.32Z" fill="#393939"/>
<path d="M150.156 25.75C156.806 16.75 171.686 15.97 179.296 24.15C183.286 28.36 184.336 34.39 183.866 39.99C174.796 40.04 165.726 39.94 156.666 40.04C159.166 48.24 170.396 49.01 176.106 43.78C177.896 45.76 179.706 47.73 181.536 49.67C174.446 57.38 161.316 57.24 153.206 51.24C145.456 45.49 144.416 33.24 150.156 25.75ZM156.636 33.95C162.546 34.03 168.466 34.05 174.366 33.93C173.546 29.8 169.956 26.22 165.556 26.43C161.136 26.19 157.396 29.72 156.636 33.95Z" fill="#393939"/>
<path d="M185.836 18.99C189.406 19.01 192.986 19 196.556 19C199.796 27.24 203.096 35.45 206.366 43.68C209.776 35.46 213.116 27.21 216.546 19C219.866 19 223.186 19 226.506 19C221.416 30.96 216.456 42.98 211.476 55C207.896 55 204.326 55.03 200.746 54.94C195.866 42.92 190.896 30.93 185.836 18.99Z" fill="#393939"/>
<path d="M231.596 25.19C238.726 16.32 254.196 16.14 261.196 25.25C264.546 29.36 265.236 34.86 264.866 39.99C255.796 40.04 246.726 39.94 237.656 40.04C240.176 48.24 251.396 49 257.106 43.78C258.906 45.77 260.716 47.74 262.556 49.7C255.386 57.36 242.286 57.26 234.156 51.2C226.256 45.29 225.386 32.61 231.596 25.19ZM237.636 33.94C243.546 34.03 249.456 34.04 255.366 33.94C254.586 30.49 252.126 27.27 248.496 26.63C243.546 25.34 238.416 28.96 237.636 33.94Z" fill="#393939"/>
<path d="M358.106 22.82C365.256 18.45 374.466 17.02 382.386 20.09C387.556 22.07 390.556 27.58 390.546 32.96C390.616 40.3 390.546 47.65 390.566 55C387.356 55 384.146 55 380.946 55C380.956 53.58 380.996 52.18 381.046 50.77C376.526 56.66 367.256 56.83 361.316 53.12C355.656 49.68 355.246 40.21 360.946 36.63C366.756 32.86 373.996 34.32 380.526 33.95C380.086 31.53 379.326 28.78 376.786 27.79C371.806 25.85 366.106 27.35 361.796 30.21C360.586 27.74 359.346 25.27 358.106 22.82ZM369.176 40.7C366.196 41.59 366.096 46.3 368.836 47.56C373.886 50.79 382.046 46.41 380.356 40.02C376.646 40.25 372.716 39.32 369.176 40.7Z" fill="#393939"/>
<path d="M447.706 21.22C455.356 16.96 465.066 17.96 472.756 21.64C471.596 24.11 470.446 26.59 469.306 29.07C464.786 26.92 459.436 25.42 454.526 27.16C452.616 27.82 451.426 30.68 453.556 31.85C459.016 34.16 465.616 33.22 470.566 36.82C475.876 40.69 474.586 49.63 469.036 52.68C460.606 57.32 450.036 55.88 441.656 51.8C442.836 49.27 443.976 46.72 445.076 44.16C450.276 46.78 456.566 48.78 462.296 46.77C464.396 45.95 464.876 42.89 462.466 42.13C456.506 40.04 448.896 41.18 444.346 36C441.006 31.34 442.586 23.95 447.706 21.22Z" fill="#393939"/>
</svg>
