<svg width="395" height="227" viewBox="0 0 395 227" fill="none" xmlns="http://www.w3.org/2000/svg">
<path d="M50.1663 176C53.5963 176 57.0163 176 60.4363 176C60.4363 192.33 60.4363 208.67 60.4363 225C57.0163 225 53.5963 225 50.1663 225C50.1663 208.67 50.1663 192.33 50.1663 176Z" fill="#393939"/>
<path d="M321.166 176C324.586 176 328.016 176 331.436 176C331.426 181.59 331.456 187.19 331.416 192.79C337.056 186.84 347.076 187.38 353.256 192.18C362.156 199.28 362.156 214.72 353.256 221.82C346.906 226.74 336.776 227.08 330.966 221.11C330.986 222.08 331.036 224.02 331.066 224.99C327.766 225 324.466 225 321.166 225C321.166 208.67 321.166 192.33 321.166 176ZM336.906 197.56C331.186 199.87 330.016 207.57 332.616 212.6C335.006 217.28 341.766 218.49 345.826 215.33C350.216 211.78 350.646 204.57 347.316 200.19C345.016 196.98 340.446 196.21 336.906 197.56Z" fill="#393939"/>
<path d="M5.73628 186.24C15.3163 175.35 34.5763 175.05 44.1963 186.06C41.8863 188.3 39.5963 190.54 37.2863 192.77C32.6263 186.67 23.3963 185.03 17.0663 189.47C8.67628 194.92 8.68628 209.08 17.0663 214.53C23.3263 218.86 32.4663 217.43 37.2763 211.58C39.5863 213.7 41.8763 215.83 44.2063 217.93C34.5463 228.92 15.2563 228.7 5.68628 217.7C-1.91372 209.08 -1.89372 194.84 5.73628 186.24Z" fill="#393939"/>
<path d="M240.966 179C244.496 179 248.036 179 251.566 179C251.566 191.51 251.566 204.03 251.576 216.54C259.326 216.52 267.086 216.54 274.836 216.53C274.836 219.35 274.836 222.17 274.836 225C263.546 225 252.256 225 240.966 225C240.966 209.67 240.966 194.33 240.966 179Z" fill="#393939"/>
<path d="M203.016 193.32C206.056 189.83 210.696 188.54 215.166 188.38C215.166 191.41 215.156 194.44 215.186 197.46C210.476 196.71 204.756 198.97 203.836 204.12C202.996 211.04 203.626 218.05 203.436 225C200.016 225 196.586 225 193.166 225C193.166 213 193.166 201 193.166 189C196.456 189 199.746 189 203.036 189C203.036 190.44 203.026 191.88 203.016 193.32Z" fill="#393939"/>
<path d="M71.1563 195.75C77.8063 186.75 92.6863 185.97 100.296 194.15C104.286 198.36 105.336 204.39 104.866 209.99C95.7963 210.04 86.7263 209.94 77.6663 210.04C80.1663 218.24 91.3963 219.01 97.1063 213.78C98.8963 215.76 100.706 217.73 102.536 219.67C95.4463 227.38 82.3163 227.24 74.2063 221.24C66.4563 215.49 65.4163 203.24 71.1563 195.75ZM77.6363 203.95C83.5463 204.03 89.4663 204.05 95.3663 203.93C94.5463 199.8 90.9563 196.22 86.5563 196.43C82.1363 196.19 78.3963 199.72 77.6363 203.95Z" fill="#393939"/>
<path d="M106.836 188.99C110.406 189.01 113.986 189 117.556 189C120.796 197.24 124.096 205.45 127.366 213.68C130.776 205.46 134.116 197.21 137.546 189C140.866 189 144.186 189 147.506 189C142.416 200.96 137.456 212.98 132.476 225C128.896 225 125.326 225.03 121.746 224.94C116.866 212.92 111.896 200.93 106.836 188.99Z" fill="#393939"/>
<path d="M152.596 195.19C159.726 186.32 175.196 186.14 182.196 195.25C185.546 199.36 186.236 204.86 185.866 209.99C176.796 210.04 167.726 209.94 158.656 210.04C161.176 218.24 172.396 219 178.106 213.78C179.906 215.77 181.716 217.74 183.556 219.7C176.386 227.36 163.286 227.26 155.156 221.2C147.256 215.29 146.386 202.61 152.596 195.19ZM158.636 203.94C164.546 204.03 170.456 204.04 176.366 203.94C175.586 200.49 173.126 197.27 169.496 196.63C164.546 195.34 159.416 198.96 158.636 203.94Z" fill="#393939"/>
<path d="M279.106 192.82C286.256 188.45 295.466 187.02 303.386 190.09C308.556 192.07 311.556 197.58 311.546 202.96C311.616 210.3 311.546 217.65 311.566 225C308.356 225 305.146 225 301.946 225C301.956 223.58 301.996 222.18 302.046 220.77C297.526 226.66 288.256 226.83 282.316 223.12C276.656 219.68 276.246 210.21 281.946 206.63C287.756 202.86 294.996 204.32 301.526 203.95C301.086 201.53 300.326 198.78 297.786 197.79C292.806 195.85 287.106 197.35 282.796 200.21C281.586 197.74 280.346 195.27 279.106 192.82ZM290.176 210.7C287.196 211.59 287.096 216.3 289.836 217.56C294.886 220.79 303.046 216.41 301.356 210.02C297.646 210.25 293.716 209.32 290.176 210.7Z" fill="#393939"/>
<path d="M368.706 191.22C376.356 186.96 386.066 187.96 393.756 191.64C392.596 194.11 391.446 196.59 390.306 199.07C385.786 196.92 380.436 195.42 375.526 197.16C373.616 197.82 372.426 200.68 374.556 201.85C380.016 204.16 386.616 203.22 391.566 206.82C396.876 210.69 395.586 219.63 390.036 222.68C381.606 227.32 371.036 225.88 362.656 221.8C363.836 219.27 364.976 216.72 366.076 214.16C371.276 216.78 377.566 218.78 383.296 216.77C385.396 215.95 385.876 212.89 383.466 212.13C377.506 210.04 369.896 211.18 365.346 206C362.006 201.34 363.586 193.95 368.706 191.22Z" fill="#393939"/>
<path d="M50.1663 176C53.5963 176 57.0163 176 60.4363 176C60.4363 192.33 60.4363 208.67 60.4363 225C57.0163 225 53.5963 225 50.1663 225C50.1663 208.67 50.1663 192.33 50.1663 176Z" fill="#393939"/>
<path d="M321.166 176C324.586 176 328.016 176 331.436 176C331.426 181.59 331.456 187.19 331.416 192.79C337.056 186.84 347.076 187.38 353.256 192.18C362.156 199.28 362.156 214.72 353.256 221.82C346.906 226.74 336.776 227.08 330.966 221.11C330.986 222.08 331.036 224.02 331.066 224.99C327.766 225 324.466 225 321.166 225C321.166 208.67 321.166 192.33 321.166 176ZM336.906 197.56C331.186 199.87 330.016 207.57 332.616 212.6C335.006 217.28 341.766 218.49 345.826 215.33C350.216 211.78 350.646 204.57 347.316 200.19C345.016 196.98 340.446 196.21 336.906 197.56Z" fill="#393939"/>
<path d="M5.73628 186.24C15.3163 175.35 34.5763 175.05 44.1963 186.06C41.8863 188.3 39.5963 190.54 37.2863 192.77C32.6263 186.67 23.3963 185.03 17.0663 189.47C8.67628 194.92 8.68628 209.08 17.0663 214.53C23.3263 218.86 32.4663 217.43 37.2763 211.58C39.5863 213.7 41.8763 215.83 44.2063 217.93C34.5463 228.92 15.2563 228.7 5.68628 217.7C-1.91372 209.08 -1.89372 194.84 5.73628 186.24Z" fill="#393939"/>
<path d="M240.966 179C244.496 179 248.036 179 251.566 179C251.566 191.51 251.566 204.03 251.576 216.54C259.326 216.52 267.086 216.54 274.836 216.53C274.836 219.35 274.836 222.17 274.836 225C263.546 225 252.256 225 240.966 225C240.966 209.67 240.966 194.33 240.966 179Z" fill="#393939"/>
<path d="M203.016 193.32C206.056 189.83 210.696 188.54 215.166 188.38C215.166 191.41 215.156 194.44 215.186 197.46C210.476 196.71 204.756 198.97 203.836 204.12C202.996 211.04 203.626 218.05 203.436 225C200.016 225 196.586 225 193.166 225C193.166 213 193.166 201 193.166 189C196.456 189 199.746 189 203.036 189C203.036 190.44 203.026 191.88 203.016 193.32Z" fill="#393939"/>
<path d="M71.1563 195.75C77.8063 186.75 92.6863 185.97 100.296 194.15C104.286 198.36 105.336 204.39 104.866 209.99C95.7963 210.04 86.7263 209.94 77.6663 210.04C80.1663 218.24 91.3963 219.01 97.1063 213.78C98.8963 215.76 100.706 217.73 102.536 219.67C95.4463 227.38 82.3163 227.24 74.2063 221.24C66.4563 215.49 65.4163 203.24 71.1563 195.75ZM77.6363 203.95C83.5463 204.03 89.4663 204.05 95.3663 203.93C94.5463 199.8 90.9563 196.22 86.5563 196.43C82.1363 196.19 78.3963 199.72 77.6363 203.95Z" fill="#393939"/>
<path d="M106.836 188.99C110.406 189.01 113.986 189 117.556 189C120.796 197.24 124.096 205.45 127.366 213.68C130.776 205.46 134.116 197.21 137.546 189C140.866 189 144.186 189 147.506 189C142.416 200.96 137.456 212.98 132.476 225C128.896 225 125.326 225.03 121.746 224.94C116.866 212.92 111.896 200.93 106.836 188.99Z" fill="#393939"/>
<path d="M152.596 195.19C159.726 186.32 175.196 186.14 182.196 195.25C185.546 199.36 186.236 204.86 185.866 209.99C176.796 210.04 167.726 209.94 158.656 210.04C161.176 218.24 172.396 219 178.106 213.78C179.906 215.77 181.716 217.74 183.556 219.7C176.386 227.36 163.286 227.26 155.156 221.2C147.256 215.29 146.386 202.61 152.596 195.19ZM158.636 203.94C164.546 204.03 170.456 204.04 176.366 203.94C175.586 200.49 173.126 197.27 169.496 196.63C164.546 195.34 159.416 198.96 158.636 203.94Z" fill="#393939"/>
<path d="M279.106 192.82C286.256 188.45 295.466 187.02 303.386 190.09C308.556 192.07 311.556 197.58 311.546 202.96C311.616 210.3 311.546 217.65 311.566 225C308.356 225 305.146 225 301.946 225C301.956 223.58 301.996 222.18 302.046 220.77C297.526 226.66 288.256 226.83 282.316 223.12C276.656 219.68 276.246 210.21 281.946 206.63C287.756 202.86 294.996 204.32 301.526 203.95C301.086 201.53 300.326 198.78 297.786 197.79C292.806 195.85 287.106 197.35 282.796 200.21C281.586 197.74 280.346 195.27 279.106 192.82ZM290.176 210.7C287.196 211.59 287.096 216.3 289.836 217.56C294.886 220.79 303.046 216.41 301.356 210.02C297.646 210.25 293.716 209.32 290.176 210.7Z" fill="#393939"/>
<path d="M368.706 191.22C376.356 186.96 386.066 187.96 393.756 191.64C392.596 194.11 391.446 196.59 390.306 199.07C385.786 196.92 380.436 195.42 375.526 197.16C373.616 197.82 372.426 200.68 374.556 201.85C380.016 204.16 386.616 203.22 391.566 206.82C396.876 210.69 395.586 219.63 390.036 222.68C381.606 227.32 371.036 225.88 362.656 221.8C363.836 219.27 364.976 216.72 366.076 214.16C371.276 216.78 377.566 218.78 383.296 216.77C385.396 215.95 385.876 212.89 383.466 212.13C377.506 210.04 369.896 211.18 365.346 206C362.006 201.34 363.586 193.95 368.706 191.22Z" fill="#393939"/>
<path d="M149.179 0H235.465C246.738 0.786504 257.597 6.26923 264.599 15.1031C270.166 21.589 273.001 29.9327 274 38.2993V123.698C273.277 132.429 270.246 141.137 264.484 147.874C257.413 156.685 246.497 161.997 235.259 163H149.845C139.089 162.134 128.609 157.335 121.48 149.23C115.213 142.483 111.746 133.512 111 124.427V38.4019C111.746 29.3514 115.167 20.4035 121.423 13.6783C128.368 5.6651 138.607 0.843497 149.179 0ZM185.934 26.5359C178.714 31.8819 175.66 40.8754 172.974 49.071C163.986 47.5208 153.724 46.2897 145.689 51.5673C140.811 54.6563 139.732 61.2105 141.706 66.3057C144.449 73.4754 149.822 79.2887 155.446 84.4066C153.288 86.9713 151.21 89.6158 149.202 92.3059C143.99 91.7815 138.331 93.9131 136.035 98.8715C131.432 106.155 138.079 116.881 146.607 116.403C150.637 116.083 154.218 118.238 158.132 118.682C163.481 119.446 168.819 118.158 174.088 117.394C177.141 124.929 180.355 133.763 188.253 137.501C193.372 140.226 199.433 137.433 202.969 133.455C207.962 127.619 210.82 120.324 212.886 113.04C217.696 113.906 222.575 114.556 227.476 114.476C230.082 117.839 233.985 120.597 238.461 120.255C245.624 120.267 251.352 112.835 249.986 106.007C249.286 101.995 245.693 99.3958 244.568 95.5545C242.663 89.9464 238.473 85.5807 234.765 81.0782C240.103 74.4899 246.118 67.0808 245.682 58.1215C245.36 52.4222 240.241 48.3643 234.96 47.213C227.465 45.5146 219.808 47.2586 212.496 48.9798C212.381 48.3415 212.175 47.0648 212.06 46.4265C213.931 44.5571 215.825 42.551 216.571 39.9521C218.936 33.9336 214.838 26.7297 208.811 24.792C205.586 23.4697 202.085 24.4044 199.009 25.6583C194.784 23.6749 189.745 23.5723 185.934 26.5359Z" fill="#FF0657"/>
<path d="M203.325 29.1348C208.674 27.5732 214.126 33.4777 212.083 38.6527C210.637 43.6225 203.485 45.4462 199.927 41.5479C195.691 37.8662 197.964 30.3317 203.325 29.1348Z" fill="#FF0657"/>
<path d="M188.723 30.3545C190.411 28.7587 192.844 29.112 194.968 28.9069C193.591 32.3948 191.731 36.3046 193.522 40.0091C195.186 46.039 201.763 49.2534 207.732 48.5239L207.687 50.3362C203.52 52.2626 199.089 53.5962 195.014 55.762C189.447 53.4252 183.707 51.4875 177.819 50.0855C179.942 42.8929 182.49 35.0963 188.723 30.3545Z" fill="#FF0657"/>
<path d="M213.92 53.5506C221.094 51.989 228.773 50.1653 235.971 52.5476C239.299 53.5734 241.411 57.0956 240.792 60.5038C239.896 67.172 235.649 72.8371 231.276 77.7499C226.5 73.6464 221.45 69.8506 216.066 66.5679C215.389 62.2136 214.735 57.8707 213.92 53.5506Z" fill="#FF0657"/>
<path d="M150.66 54.2118C157.386 51.5445 164.836 52.7413 171.815 53.562C170.598 59.4779 169.852 65.4736 169.29 71.492C165.513 74.4443 161.955 77.6473 158.488 80.9529C153.127 75.4018 146.539 69.6683 145.678 61.5525C145.138 58.2127 147.664 55.3174 150.66 54.2118Z" fill="#FF0657"/>
<path d="M176.636 54.8273C180.849 55.8987 185.004 57.164 189.125 58.5546C184.097 61.4043 179.162 64.4363 174.398 67.7077C174.926 63.3762 175.638 59.0676 176.636 54.8273Z" fill="#FF0657"/>
<path d="M200.948 58.2468C203.703 57.1754 206.47 56.1039 209.236 55.0552C209.787 57.8137 210.327 60.5836 210.797 63.3648C207.491 61.6892 204.243 59.9224 200.948 58.2468Z" fill="#FF0657"/>
<path d="M173.904 74.1023C180.47 69.0641 187.587 64.7669 194.991 61.0623C200.661 63.342 206.068 66.1803 211.325 69.2579C212.175 77.8069 212.14 86.4356 211.211 94.9732C206.653 98.1078 201.855 100.9 196.942 103.454C188.987 100.49 181.434 96.6488 174.134 92.3629C173.778 86.276 173.835 80.1892 173.904 74.1023ZM189.332 71.0133C184.545 72.5293 180.769 77.0546 180.7 82.1269C180.241 88.2594 185.119 94.2436 191.352 94.768C198.125 95.8167 204.955 90.106 205 83.301C205.815 75.2764 197 68.4486 189.332 71.0133Z" fill="#FF0657"/>
<path d="M216.514 72.6091C220.566 75.208 224.388 78.1716 228.027 81.329C224.331 84.8626 220.485 88.2366 216.41 91.3256C216.675 85.0906 216.617 78.8441 216.514 72.6091Z" fill="#FF0657"/>
<path d="M190.583 75.7551C195.289 74.0795 200.742 78.1602 200.03 83.1756C200.283 88.8863 192.58 92.0209 188.368 88.4988C183.845 85.3072 185.119 77.1913 190.583 75.7551Z" fill="#FF0657"/>
<path d="M162.253 84.0077C164.503 81.8989 166.764 79.813 169.049 77.7498C169.083 81.5456 169.129 85.3527 169.163 89.1599C166.799 87.5299 164.492 85.8087 162.253 84.0077Z" fill="#FF0657"/>
<path d="M215.802 97.6176C221.404 93.7763 226.592 89.3878 231.494 84.7144C234.777 87.906 237.417 91.6562 239.667 95.6229C236.246 95.8965 232.607 96.3866 230.093 98.9627C226.73 101.505 225.949 105.847 225.674 109.78C221.76 109.575 217.868 109.073 214.011 108.378C214.723 104.81 215.297 101.22 215.802 97.6176Z" fill="#FF0657"/>
<path d="M158.729 87.5298C162.368 90.1401 165.915 92.8872 169.703 95.2695C170.254 101.14 171.31 106.953 172.653 112.698C167.028 113.804 161.243 114.396 155.538 113.45C157.375 110.509 159.292 107.318 158.913 103.704C158.913 99.8631 156.456 96.6943 153.839 94.1068C155.458 91.9069 157.088 89.7184 158.729 87.5298Z" fill="#FF0657"/>
<path d="M144.725 97.3782C149.799 95.5773 155.435 100.809 154 105.984C153.162 111.797 144.576 113.758 141.121 109.13C137.792 105.312 139.732 98.6321 144.725 97.3782Z" fill="#FF0657"/>
<path d="M174.8 98.3585C180.08 101.22 185.406 104.001 190.939 106.326C186.542 108.253 182.077 110.019 177.497 111.49C176.453 107.147 175.488 102.781 174.8 98.3585Z" fill="#FF0657"/>
<path d="M236.625 100.866C241.985 99.5896 247.002 105.414 245.039 110.498C243.673 115.445 236.786 117.292 233.147 113.61C228.463 110.019 230.851 101.721 236.625 100.866Z" fill="#FF0657"/>
<path d="M203.118 105.745C205.586 104.195 208.065 102.644 210.556 101.117C210.166 103.18 209.764 105.232 209.362 107.295C207.285 106.748 205.196 106.258 203.118 105.745Z" fill="#FF0657"/>
<path d="M178.829 116.197C185.096 114.054 191.272 111.649 197.252 108.811C200.822 110.031 204.438 111.091 208.077 112.094C206.091 118.694 203.933 125.658 198.963 130.696C196.805 132.862 193.453 134.925 190.399 133.318C183.891 129.955 181.205 122.626 178.829 116.197Z" fill="#FF0657"/>
<path d="M185.934 26.5359C189.745 23.5723 194.784 23.6749 199.009 25.6582C202.085 24.4044 205.586 23.4697 208.811 24.792C214.838 26.7297 218.936 33.9336 216.571 39.9521C215.825 42.551 213.931 44.5571 212.06 46.4265C212.175 47.0648 212.381 48.3415 212.496 48.9798C219.808 47.2586 227.465 45.5146 234.96 47.213C240.241 48.3643 245.36 52.4222 245.682 58.1215C246.118 67.0808 240.103 74.4899 234.765 81.0782C238.473 85.5807 242.663 89.9464 244.568 95.5545C245.693 99.3958 249.286 101.995 249.986 106.007C251.352 112.835 245.624 120.267 238.461 120.255C233.985 120.597 230.082 117.839 227.476 114.476C222.575 114.556 217.696 113.906 212.886 113.04C210.82 120.324 207.962 127.619 202.969 133.455C199.433 137.433 193.372 140.226 188.253 137.501C180.355 133.763 177.141 124.929 174.088 117.394C168.819 118.158 163.481 119.446 158.132 118.682C154.218 118.238 150.637 116.083 146.607 116.403C138.079 116.881 131.432 106.155 136.035 98.8715C138.331 93.9131 143.99 91.7815 149.202 92.3059C151.21 89.6158 153.288 86.9713 155.446 84.4066C149.822 79.2887 144.449 73.4754 141.706 66.3057C139.732 61.2105 140.811 54.6563 145.689 51.5673C153.724 46.2897 163.986 47.5208 172.974 49.071C175.66 40.8754 178.714 31.8819 185.934 26.5359ZM203.325 29.1348C197.964 30.3317 195.691 37.8662 199.927 41.5479C203.485 45.4462 210.637 43.6224 212.083 38.6527C214.126 33.4777 208.674 27.5732 203.325 29.1348ZM188.723 30.3545C182.49 35.0963 179.942 42.8929 177.819 50.0855C183.707 51.4875 189.447 53.4252 195.014 55.762C199.089 53.5962 203.52 52.2626 207.687 50.3362L207.732 48.5238C201.763 49.2534 195.186 46.0389 193.522 40.0091C191.731 36.3045 193.59 32.3948 194.968 28.9069C192.844 29.112 190.411 28.7587 188.723 30.3545ZM213.92 53.5506C214.735 57.8707 215.389 62.2136 216.066 66.5678C221.45 69.8506 226.5 73.6464 231.276 77.7499C235.649 72.8371 239.896 67.172 240.792 60.5038C241.411 57.0956 239.299 53.5734 235.971 52.5475C228.773 50.1652 221.094 51.989 213.92 53.5506ZM150.66 54.2117C147.664 55.3174 145.138 58.2127 145.678 61.5524C146.539 69.6683 153.127 75.4017 158.488 80.9529C161.955 77.6473 165.513 74.4443 169.29 71.492C169.852 65.4736 170.598 59.4779 171.815 53.562C164.836 52.7413 157.386 51.5445 150.66 54.2117ZM176.636 54.8273C175.638 59.0675 174.926 63.3762 174.398 67.7077C179.162 64.4363 184.097 61.4043 189.125 58.5546C185.004 57.164 180.849 55.8987 176.636 54.8273ZM200.948 58.2468C204.243 59.9224 207.491 61.6892 210.797 63.3648C210.327 60.5836 209.787 57.8137 209.236 55.0552C206.47 56.1039 203.703 57.1754 200.948 58.2468ZM173.904 74.1023C173.835 80.1892 173.778 86.276 174.134 92.3629C181.434 96.6487 188.987 100.49 196.942 103.454C201.855 100.9 206.653 98.1078 211.211 94.9731C212.14 86.4356 212.175 77.8068 211.325 69.2579C206.068 66.1803 200.661 63.342 194.991 61.0623C187.587 64.7669 180.47 69.0641 173.904 74.1023ZM216.514 72.6091C216.617 78.8441 216.675 85.0906 216.41 91.3256C220.485 88.2366 224.331 84.8626 228.027 81.329C224.388 78.1716 220.566 75.208 216.514 72.6091ZM162.253 84.0077C164.492 85.8087 166.799 87.5299 169.163 89.1599C169.129 85.3527 169.083 81.5456 169.049 77.7499C166.764 79.813 164.503 81.8989 162.253 84.0077ZM215.802 97.6176C215.297 101.22 214.723 104.81 214.011 108.378C217.868 109.073 221.76 109.575 225.674 109.78C225.949 105.847 226.73 101.505 230.093 98.9627C232.607 96.3866 236.246 95.8964 239.667 95.6229C237.417 91.6562 234.777 87.906 231.494 84.7144C226.592 89.3878 221.404 93.7763 215.802 97.6176ZM158.729 87.5299C157.088 89.7184 155.458 91.9069 153.839 94.1068C156.456 96.6943 158.913 99.8631 158.913 103.704C159.292 107.318 157.375 110.509 155.538 113.45C161.243 114.396 167.028 113.804 172.653 112.698C171.31 106.953 170.254 101.14 169.703 95.2695C165.915 92.8872 162.368 90.1401 158.729 87.5299ZM144.725 97.3783C139.732 98.6321 137.792 105.312 141.121 109.13C144.576 113.758 153.162 111.797 154 105.984C155.435 100.809 149.799 95.5773 144.725 97.3783ZM174.8 98.3585C175.488 102.781 176.453 107.147 177.497 111.49C182.077 110.019 186.542 108.253 190.939 106.326C185.406 104.001 180.08 101.22 174.8 98.3585ZM236.625 100.866C230.851 101.721 228.463 110.019 233.147 113.61C236.786 117.292 243.673 115.445 245.039 110.498C247.002 105.414 241.985 99.5896 236.625 100.866ZM203.118 105.745C205.196 106.258 207.285 106.748 209.362 107.295C209.764 105.232 210.166 103.18 210.556 101.117C208.065 102.644 205.586 104.195 203.118 105.745ZM178.829 116.197C181.205 122.626 183.891 129.955 190.399 133.318C193.453 134.925 196.805 132.862 198.963 130.696C203.933 125.658 206.091 118.694 208.077 112.094C204.438 111.091 200.822 110.031 197.252 108.811C191.272 111.649 185.096 114.054 178.829 116.197Z" fill="white"/>
<path d="M189.332 71.0133C197 68.4486 205.815 75.2764 205 83.301C204.955 90.106 198.125 95.8167 191.352 94.768C185.119 94.2437 180.241 88.2594 180.7 82.1269C180.769 77.0546 184.545 72.5293 189.332 71.0133ZM190.583 75.7551C185.119 77.1913 183.845 85.3071 188.368 88.4988C192.58 92.0209 200.283 88.8863 200.03 83.1756C200.742 78.1602 195.289 74.0795 190.583 75.7551Z" fill="white"/>
</svg>
