<?xml version="1.0" encoding="UTF-8" ?>
<!DOCTYPE svg PUBLIC "-//W3C//DTD SVG 1.1//EN" "http://www.w3.org/Graphics/SVG/1.1/DTD/svg11.dtd">
<svg width="512pt" height="512pt" viewBox="0 0 512 512" version="1.1" xmlns="http://www.w3.org/2000/svg">
<g id="#1de8f1ff">
<path fill="#1de8f1" opacity="1.00" d=" M 254.78 0.00 L 255.83 0.00 C 256.15 43.32 255.88 86.66 255.97 129.99 C 255.97 189.01 255.97 248.02 255.97 307.04 C 255.85 321.84 256.21 336.65 255.78 351.44 C 247.24 351.24 238.68 351.29 230.14 351.42 C 217.54 351.98 206.68 363.37 206.73 376.00 C 206.65 416.36 206.75 456.72 206.69 497.08 C 206.77 504.60 200.53 511.22 193.11 512.00 L 109.17 512.00 C 87.87 511.83 67.51 498.16 59.31 478.51 C 56.24 471.43 54.81 463.69 54.84 455.99 C 54.82 405.04 54.83 354.09 54.83 303.14 C 46.27 303.34 37.45 303.09 29.46 299.67 C 12.37 292.98 0.33 275.57 0.00 257.23 L 0.00 255.00 C 0.27 242.77 5.45 230.79 14.21 222.26 C 83.37 153.06 152.57 83.91 221.74 14.73 C 230.28 5.74 242.37 0.34 254.78 0.00 Z" />
</g>
<g id="#00c7ceff">
<path fill="#00c7ce" opacity="1.00" d=" M 255.83 0.00 L 260.52 0.00 C 271.55 1.07 282.11 6.15 289.82 14.12 C 355.19 79.44 420.52 144.80 485.87 210.14 C 490.51 214.83 495.27 219.40 499.81 224.19 C 506.73 231.59 510.72 241.34 512.00 251.32 L 512.00 260.45 C 510.37 277.06 499.57 292.38 484.27 299.14 C 475.87 303.22 466.39 303.44 457.25 303.25 C 457.22 348.51 457.24 393.77 457.24 439.02 C 457.19 446.70 457.40 454.39 456.97 462.07 C 455.51 480.11 444.24 496.85 428.36 505.42 C 421.91 509.05 414.68 510.98 407.38 512.00 L 317.40 512.00 C 312.51 510.79 308.04 507.47 306.22 502.68 C 304.63 499.32 305.08 495.55 305.04 491.97 C 305.05 453.31 305.03 414.66 305.05 376.00 C 305.02 363.99 295.08 352.81 283.05 351.77 C 273.97 351.25 264.86 351.86 255.78 351.44 C 256.21 336.65 255.85 321.84 255.97 307.04 C 255.97 248.02 255.97 189.01 255.97 129.99 C 255.88 86.66 256.15 43.32 255.83 0.00 Z" />
</g>
</svg>
