<?xml version="1.0" encoding="UTF-8" ?>
<!DOCTYPE svg PUBLIC "-//W3C//DTD SVG 1.1//EN" "http://www.w3.org/Graphics/SVG/1.1/DTD/svg11.dtd">
<svg width="512pt" height="512pt" viewBox="0 0 512 512" version="1.1" xmlns="http://www.w3.org/2000/svg">
<g id="#3342aeff">
<path fill="#3342ae" opacity="1.00" d=" M 36.02 0.00 L 112.31 0.00 C 106.34 1.76 102.20 7.46 102.70 13.73 C 97.37 13.91 92.59 18.56 92.83 23.99 C 92.77 29.35 97.60 33.75 102.83 33.88 C 102.77 38.64 102.80 43.39 102.82 48.15 C 98.91 48.86 94.93 48.41 90.99 48.51 C 72.62 48.42 54.24 48.68 35.88 48.38 C 36.05 32.25 35.77 16.12 36.02 0.00 M 68.39 14.61 C 61.46 17.18 60.21 27.61 66.32 31.76 C 72.00 36.52 81.69 32.32 82.21 24.96 C 83.36 17.70 75.06 11.44 68.39 14.61 Z" />
</g>
<g id="#615df9ff">
<path fill="#615df9" opacity="1.00" d=" M 112.31 0.00 L 475.60 0.00 C 475.89 1.31 476.04 2.64 476.06 3.99 C 476.01 18.84 476.03 33.69 476.05 48.55 C 366.03 48.50 256.00 48.55 145.98 48.53 C 143.21 48.46 140.44 48.58 137.68 48.69 C 126.12 48.43 114.54 48.47 102.98 48.64 C 80.62 48.98 58.24 48.67 35.87 48.80 L 35.88 48.38 C 54.24 48.68 72.62 48.42 90.99 48.51 C 94.93 48.41 98.91 48.86 102.82 48.15 C 102.80 43.39 102.77 38.64 102.83 33.88 C 107.67 33.71 112.14 29.99 112.68 25.10 C 113.65 19.25 108.53 13.71 102.70 13.73 C 102.20 7.46 106.34 1.76 112.31 0.00 M 130.16 14.33 C 123.06 16.35 120.91 26.65 126.71 31.27 C 131.90 36.31 141.62 33.22 142.99 26.13 C 145.11 18.91 137.19 11.62 130.16 14.33 M 164.97 25.07 C 165.61 28.83 168.96 32.29 172.94 32.10 C 220.96 32.07 268.98 32.11 317.01 32.09 C 319.00 32.09 321.00 31.97 322.99 31.78 C 334.02 31.82 345.05 31.80 356.09 31.78 C 359.65 32.02 363.29 29.62 364.05 26.06 C 365.32 21.68 361.62 16.73 357.03 16.83 C 345.40 16.74 333.76 16.84 322.12 16.78 C 316.74 16.41 311.35 16.66 305.97 16.56 C 264.00 16.58 222.02 16.57 180.05 16.57 C 176.71 16.61 173.32 16.33 170.02 16.99 C 166.93 18.32 164.79 21.70 164.97 25.07 M 391.32 17.47 C 388.48 18.80 386.61 21.99 387.03 25.13 C 387.40 29.01 391.09 32.05 394.97 31.77 C 412.35 31.80 429.73 31.84 447.11 31.75 C 451.18 31.83 454.86 28.17 454.62 24.06 C 454.64 20.09 451.00 16.64 447.04 16.82 C 430.05 16.76 413.05 16.83 396.06 16.78 C 394.46 16.83 392.78 16.75 391.32 17.47 Z" />
</g>
<g id="#f948b4ff">
<path fill="#f948b4" opacity="1.00" d=" M 68.39 14.61 C 75.06 11.44 83.36 17.70 82.21 24.96 C 81.69 32.32 72.00 36.52 66.32 31.76 C 60.21 27.61 61.46 17.18 68.39 14.61 Z" />
<path fill="#f948b4" opacity="1.00" d=" M 321.74 194.21 C 329.19 194.32 336.63 194.19 344.07 194.30 C 346.61 194.13 349.01 196.36 348.93 198.93 C 349.01 204.29 348.98 209.65 348.95 215.01 C 349.13 216.99 347.88 218.63 346.28 219.62 C 338.15 220.49 329.91 219.76 321.73 220.00 C 321.73 211.40 321.71 202.81 321.74 194.21 Z" />
</g>
<g id="#fecd0aff">
<path fill="#fecd0a" opacity="1.00" d=" M 92.83 23.99 C 92.59 18.56 97.37 13.91 102.70 13.73 C 108.53 13.71 113.65 19.25 112.68 25.10 C 112.14 29.99 107.67 33.71 102.83 33.88 C 97.60 33.75 92.77 29.35 92.83 23.99 Z" />
<path fill="#fecd0a" opacity="1.00" d=" M 386.04 94.66 C 392.99 93.83 400.20 94.55 406.64 97.39 C 416.68 101.65 424.65 110.49 427.81 120.94 C 430.87 130.58 429.73 141.43 424.88 150.29 C 423.96 151.84 423.01 153.38 422.03 154.89 C 413.28 155.48 404.13 154.25 396.74 149.22 C 385.85 142.39 378.95 129.83 378.94 116.99 C 378.65 108.97 381.80 101.31 386.04 94.66 Z" />
<path fill="#fecd0a" opacity="1.00" d=" M 107.07 383.86 C 125.36 384.02 143.66 383.91 161.96 383.92 C 164.86 384.00 168.16 383.44 170.61 385.41 C 173.05 387.09 173.78 390.18 173.60 392.98 C 173.56 427.93 173.62 462.88 173.57 497.83 C 162.21 493.98 151.28 488.93 140.68 483.35 C 144.44 482.82 149.26 483.30 151.56 479.58 C 154.83 475.21 151.55 468.12 146.06 467.97 C 135.93 467.80 125.79 467.74 115.66 468.03 C 110.97 464.71 106.41 461.21 101.84 457.71 C 101.60 457.18 101.11 456.12 100.87 455.59 C 115.58 455.58 130.30 455.63 145.01 455.57 C 149.20 455.84 153.06 452.15 152.86 447.94 C 152.87 443.81 149.03 440.29 144.92 440.61 C 127.26 440.62 109.60 440.52 91.94 440.67 C 95.28 440.34 98.66 440.41 102.01 440.16 C 102.53 433.14 101.98 426.09 102.32 419.07 C 103.74 420.81 104.99 422.73 106.75 424.16 C 110.08 426.42 114.29 425.73 118.08 425.83 C 121.83 425.67 125.66 426.21 129.34 425.31 C 136.12 423.41 138.52 413.42 133.21 408.73 C 130.42 405.55 125.90 405.81 122.06 405.78 C 118.06 405.87 114.02 405.56 110.05 406.16 C 106.41 406.86 104.26 410.13 102.20 412.88 C 102.32 405.61 102.06 398.32 102.36 391.05 C 102.32 387.87 104.80 385.69 107.07 383.86 Z" />
<path fill="#fecd0a" opacity="1.00" d=" M 244.19 383.87 C 264.14 384.05 284.09 383.83 304.04 383.99 C 308.13 383.99 311.42 387.99 311.06 391.99 C 311.09 429.94 311.04 467.89 311.08 505.85 C 299.35 508.56 287.35 510.83 275.29 511.02 C 271.04 510.76 266.87 511.75 262.65 512.00 L 249.38 512.00 C 246.21 511.71 243.07 511.17 239.90 510.95 C 239.73 501.59 239.77 492.22 239.87 482.87 C 254.28 482.82 268.70 482.94 283.11 482.81 C 287.54 482.87 291.17 478.28 290.20 473.98 C 289.57 470.16 285.73 467.52 281.95 467.87 C 267.93 467.85 253.91 467.87 239.89 467.87 C 239.73 463.78 239.72 459.68 239.86 455.60 C 254.26 455.55 268.66 455.68 283.06 455.54 C 287.41 455.59 291.03 451.23 290.25 446.96 C 289.74 443.03 285.85 440.20 281.97 440.60 C 264.27 440.66 246.56 440.46 228.86 440.71 C 232.48 440.09 236.19 440.79 239.79 439.96 C 239.89 433.28 239.57 426.59 240.05 419.91 C 242.31 422.29 244.53 425.31 248.09 425.60 C 253.41 425.99 258.78 425.88 264.11 425.76 C 270.33 425.58 275.20 418.77 273.22 412.85 C 271.80 409.06 268.15 405.92 263.98 405.90 C 258.64 405.73 253.28 405.60 247.95 406.01 C 244.32 406.31 242.17 409.57 240.01 412.08 C 239.67 405.04 239.75 397.98 239.88 390.94 C 239.79 387.90 242.40 385.94 244.19 383.87 Z" />
<path fill="#fecd0a" opacity="1.00" d=" M 382.01 383.86 C 400.33 384.01 418.66 383.91 436.98 383.93 C 439.88 384.00 443.20 383.44 445.62 385.46 C 448.01 387.16 448.74 390.21 448.57 393.01 C 448.45 401.63 448.76 410.26 448.40 418.88 C 441.67 427.52 434.24 435.58 426.40 443.22 C 424.47 441.91 422.43 440.42 419.96 440.62 C 402.27 440.60 384.57 440.53 366.88 440.66 C 370.21 440.32 373.58 440.54 376.91 440.07 C 377.60 433.11 376.96 426.10 377.21 419.12 C 379.33 421.88 381.61 425.10 385.35 425.59 C 390.56 426.08 395.82 425.85 401.05 425.78 C 406.64 425.84 411.58 420.53 411.04 414.95 C 410.85 409.88 406.06 405.57 400.99 405.88 C 395.71 405.89 390.38 405.48 385.13 406.16 C 381.36 406.70 379.17 410.00 377.22 412.90 C 377.25 405.58 377.07 398.26 377.27 390.95 C 377.15 387.77 379.89 385.76 382.01 383.86 Z" />
<path fill="#fecd0a" opacity="1.00" d=" M 377.09 455.60 C 388.56 455.62 400.04 455.55 411.52 455.63 C 411.18 456.11 410.50 457.07 410.16 457.55 C 405.73 461.28 401.03 464.66 396.34 468.05 C 389.94 467.67 383.53 467.94 377.13 467.87 C 377.22 463.77 377.20 459.68 377.09 455.60 Z" />
</g>
<g id="#39df74ff">
<path fill="#39df74" opacity="1.00" d=" M 130.16 14.33 C 137.19 11.62 145.11 18.91 142.99 26.13 C 141.62 33.22 131.90 36.31 126.71 31.27 C 120.91 26.65 123.06 16.35 130.16 14.33 Z" />
</g>
<g id="#8181fcff">
<path fill="#8181fc" opacity="1.00" d=" M 164.97 25.07 C 164.79 21.70 166.93 18.32 170.02 16.99 C 173.32 16.33 176.71 16.61 180.05 16.57 C 222.02 16.57 264.00 16.58 305.97 16.56 C 311.35 16.66 316.74 16.41 322.12 16.78 C 319.99 18.62 317.53 20.62 317.49 23.71 C 317.07 27.38 319.85 30.35 322.99 31.78 C 321.00 31.97 319.00 32.09 317.01 32.09 C 268.98 32.11 220.96 32.07 172.94 32.10 C 168.96 32.29 165.61 28.83 164.97 25.07 Z" />
</g>
<g id="#aeaeffff">
<path fill="#aeaeff" opacity="1.00" d=" M 322.12 16.78 C 333.76 16.84 345.40 16.74 357.03 16.83 C 361.62 16.73 365.32 21.68 364.05 26.06 C 363.29 29.62 359.65 32.02 356.09 31.78 C 345.05 31.80 334.02 31.82 322.99 31.78 C 319.85 30.35 317.07 27.38 317.49 23.71 C 317.53 20.62 319.99 18.62 322.12 16.78 Z" />
<path fill="#aeaeff" opacity="1.00" d=" M 391.32 17.47 C 392.78 16.75 394.46 16.83 396.06 16.78 C 413.05 16.83 430.05 16.76 447.04 16.82 C 451.00 16.64 454.64 20.09 454.62 24.06 C 454.86 28.17 451.18 31.83 447.11 31.75 C 429.73 31.84 412.35 31.80 394.97 31.77 C 391.09 32.05 387.40 29.01 387.03 25.13 C 386.61 21.99 388.48 18.80 391.32 17.47 Z" />
</g>
<g id="#0ac6e5ff">
<path fill="#0ac6e5" opacity="1.00" d=" M 35.87 48.80 C 58.24 48.67 80.62 48.98 102.98 48.64 C 102.81 56.75 102.87 64.88 102.93 72.99 C 80.59 73.12 58.25 73.03 35.91 73.01 C 35.86 64.94 35.93 56.87 35.87 48.80 Z" />
</g>
<g id="#11dfefff">
<path fill="#11dfef" opacity="1.00" d=" M 102.98 48.64 C 114.54 48.47 126.12 48.43 137.68 48.69 C 146.76 53.34 152.97 62.84 152.98 73.13 C 136.30 72.84 119.62 73.08 102.93 72.99 C 102.87 64.88 102.81 56.75 102.98 48.64 Z" />
</g>
<g id="#d5f1feff">
<path fill="#d5f1fe" opacity="1.00" d=" M 137.68 48.69 C 140.44 48.58 143.21 48.46 145.98 48.53 C 256.00 48.55 366.03 48.50 476.05 48.55 C 476.00 56.76 476.10 64.98 475.99 73.19 C 368.32 73.05 260.65 73.19 152.98 73.13 C 152.97 62.84 146.76 53.34 137.68 48.69 Z" />
</g>
<g id="#27a3ffff">
<path fill="#27a3ff" opacity="1.00" d=" M 35.91 73.01 C 58.25 73.03 80.59 73.12 102.93 72.99 C 119.62 73.08 136.30 72.84 152.98 73.13 L 152.86 73.38 C 147.83 84.03 145.63 97.05 150.98 108.00 C 155.15 116.95 163.70 122.92 172.63 126.52 C 175.09 127.39 176.77 129.52 179.03 130.73 C 180.49 130.09 181.54 128.81 182.71 127.77 C 198.23 113.25 216.30 100.81 236.91 94.85 C 262.60 87.45 290.81 89.87 315.15 100.79 C 324.61 104.81 333.36 110.32 341.70 116.28 C 345.96 119.24 349.76 122.84 354.24 125.49 C 352.78 135.70 354.74 146.62 361.18 154.87 C 370.87 168.11 389.53 173.59 404.88 167.85 C 411.68 165.31 417.81 160.82 422.03 154.89 C 423.01 153.38 423.96 151.84 424.88 150.29 C 437.75 150.17 450.40 146.37 462.02 141.02 C 466.85 138.86 471.29 135.95 476.05 133.65 C 476.15 142.27 475.95 150.90 476.16 159.52 C 475.94 175.58 476.20 191.64 476.02 207.70 C 467.15 198.97 458.46 190.06 449.58 181.35 C 440.36 172.22 424.19 171.88 414.63 180.66 C 407.96 187.01 401.64 193.70 395.02 200.09 C 391.83 203.16 386.81 204.08 382.76 202.29 C 380.09 201.14 378.19 198.85 376.16 196.87 C 352.32 173.03 328.51 149.16 304.63 125.36 C 296.65 117.36 283.78 114.83 273.40 119.34 C 268.62 121.21 264.80 124.72 261.32 128.38 C 246.73 142.99 232.12 157.58 217.52 172.19 L 217.40 172.00 C 215.49 169.18 212.42 167.46 209.04 167.16 C 201.41 166.20 193.51 163.71 188.17 157.89 C 182.98 152.61 180.80 145.15 180.39 137.91 C 180.04 135.75 180.39 132.93 178.20 131.65 C 160.28 148.50 137.54 160.80 112.99 164.10 C 93.62 166.77 73.57 162.84 56.38 153.63 C 49.08 149.80 42.37 144.98 35.89 139.91 C 35.96 117.61 35.93 95.31 35.91 73.01 Z" />
<path fill="#27a3ff" opacity="1.00" d=" M 63.20 300.97 C 62.88 297.12 66.12 293.41 70.07 293.57 C 80.09 293.44 90.13 293.56 100.16 293.52 C 98.41 295.67 95.91 297.82 96.30 300.90 C 96.37 317.60 96.25 334.31 96.36 351.01 C 96.08 354.16 98.83 356.08 101.06 357.73 C 90.69 357.77 80.31 357.81 69.94 357.72 C 65.96 357.76 62.80 353.90 63.19 350.02 C 63.20 333.67 63.18 317.32 63.20 300.97 Z" />
</g>
<g id="#2b3894ff">
<path fill="#2b3894" opacity="1.00" d=" M 152.98 73.13 C 260.65 73.19 368.32 73.05 475.99 73.19 L 475.99 73.58 C 368.28 73.28 260.57 73.39 152.86 73.38 L 152.98 73.13 Z" />
<path fill="#2b3894" opacity="1.00" d=" M 12.61 238.91 C 15.67 211.38 23.67 184.45 35.77 159.55 C 35.96 178.24 35.73 196.93 35.89 215.62 C 36.01 232.84 35.84 250.06 35.88 267.28 C 35.89 303.03 36.08 338.79 35.79 374.54 C 15.36 332.76 7.22 285.11 12.61 238.91 Z" />
<path fill="#2b3894" opacity="1.00" d=" M 476.16 159.52 C 491.45 190.74 499.99 225.26 500.88 260.03 C 502.05 299.48 493.52 339.19 476.12 374.63 C 475.95 338.81 476.04 302.99 476.07 267.17 C 476.07 251.21 476.15 235.24 476.02 219.27 C 476.04 215.41 476.04 211.55 476.02 207.70 C 476.20 191.64 475.94 175.58 476.16 159.52 Z" />
</g>
<g id="#4fbbffff">
<path fill="#4fbbff" opacity="1.00" d=" M 150.98 108.00 C 145.63 97.05 147.83 84.03 152.86 73.38 C 260.57 73.39 368.28 73.28 475.99 73.58 C 476.11 93.60 475.98 113.63 476.05 133.65 C 471.29 135.95 466.85 138.86 462.02 141.02 C 450.40 146.37 437.75 150.17 424.88 150.29 C 429.73 141.43 430.87 130.58 427.81 120.94 C 424.65 110.49 416.68 101.65 406.64 97.39 C 400.20 94.55 392.99 93.83 386.04 94.66 C 370.23 96.61 356.93 109.89 354.24 125.49 C 349.76 122.84 345.96 119.24 341.70 116.28 C 333.36 110.32 324.61 104.81 315.15 100.79 C 290.81 89.87 262.60 87.45 236.91 94.85 C 216.30 100.81 198.23 113.25 182.71 127.77 C 181.54 128.81 180.49 130.09 179.03 130.73 C 176.77 129.52 175.09 127.39 172.63 126.52 C 163.70 122.92 155.15 116.95 150.98 108.00 Z" />
<path fill="#4fbbff" opacity="1.00" d=" M 100.16 293.52 C 100.83 293.54 102.17 293.57 102.84 293.59 C 215.58 293.76 328.32 293.61 441.05 293.66 C 444.80 293.24 448.52 296.28 448.49 300.13 C 448.60 316.77 448.51 333.43 448.53 350.08 C 448.94 353.84 445.90 357.63 442.02 357.56 C 328.96 357.71 215.89 357.47 102.82 357.68 C 102.38 357.69 101.50 357.72 101.06 357.73 C 98.83 356.08 96.08 354.16 96.36 351.01 C 96.25 334.31 96.37 317.60 96.30 300.90 C 95.91 297.82 98.41 295.67 100.16 293.52 Z" />
</g>
<g id="#fca60dff">
<path fill="#fca60d" opacity="1.00" d=" M 354.24 125.49 C 356.93 109.89 370.23 96.61 386.04 94.66 C 381.80 101.31 378.65 108.97 378.94 116.99 C 378.95 129.83 385.85 142.39 396.74 149.22 C 404.13 154.25 413.28 155.48 422.03 154.89 C 417.81 160.82 411.68 165.31 404.88 167.85 C 389.53 173.59 370.87 168.11 361.18 154.87 C 354.74 146.62 352.78 135.70 354.24 125.49 Z" />
<path fill="#fca60d" opacity="1.00" d=" M 63.17 390.92 C 63.37 387.01 66.97 383.44 71.00 383.89 C 81.61 383.84 92.22 383.90 102.83 383.87 C 104.24 383.86 105.65 383.86 107.07 383.86 C 104.80 385.69 102.32 387.87 102.36 391.05 C 102.06 398.32 102.32 405.61 102.20 412.88 C 104.26 410.13 106.41 406.86 110.05 406.16 C 114.02 405.56 118.06 405.87 122.06 405.78 C 125.90 405.81 130.42 405.55 133.21 408.73 C 138.52 413.42 136.12 423.41 129.34 425.31 C 125.66 426.21 121.83 425.67 118.08 425.83 C 114.29 425.73 110.08 426.42 106.75 424.16 C 104.99 422.73 103.74 420.81 102.32 419.07 C 101.98 426.09 102.53 433.14 102.01 440.16 C 98.66 440.41 95.28 440.34 91.94 440.67 C 89.67 440.98 88.03 442.67 86.39 444.10 C 78.00 435.99 69.96 427.46 62.92 418.15 C 63.42 409.08 62.93 399.99 63.17 390.92 Z" />
<path fill="#fca60d" opacity="1.00" d=" M 200.70 392.05 C 200.29 387.94 203.68 383.67 207.96 383.91 C 220.03 383.82 232.11 383.92 244.19 383.87 C 242.40 385.94 239.79 387.90 239.88 390.94 C 239.75 397.98 239.67 405.04 240.01 412.08 C 242.17 409.57 244.32 406.31 247.95 406.01 C 253.28 405.60 258.64 405.73 263.98 405.90 C 268.15 405.92 271.80 409.06 273.22 412.85 C 275.20 418.77 270.33 425.58 264.11 425.76 C 258.78 425.88 253.41 425.99 248.09 425.60 C 244.53 425.31 242.31 422.29 240.05 419.91 C 239.57 426.59 239.89 433.28 239.79 439.96 C 236.19 440.79 232.48 440.09 228.86 440.71 C 223.85 441.84 221.25 448.38 224.50 452.49 C 228.10 457.30 234.76 455.12 239.86 455.60 C 239.72 459.68 239.73 463.78 239.89 467.87 C 235.99 468.00 232.01 467.47 228.17 468.28 C 223.27 469.69 221.40 476.45 224.83 480.20 C 228.59 484.50 234.90 482.37 239.87 482.87 C 239.77 492.22 239.73 501.59 239.90 510.95 C 238.36 510.93 236.84 511.01 235.32 511.05 C 223.65 510.68 212.00 508.60 200.68 505.76 C 200.68 467.86 200.63 429.95 200.70 392.05 Z" />
<path fill="#fca60d" opacity="1.00" d=" M 338.08 391.92 C 337.82 388.05 340.96 383.91 344.99 383.94 C 357.33 383.78 369.67 383.94 382.01 383.86 C 379.89 385.76 377.15 387.77 377.27 390.95 C 377.07 398.26 377.25 405.58 377.22 412.90 C 379.17 410.00 381.36 406.70 385.13 406.16 C 390.38 405.48 395.71 405.89 400.99 405.88 C 406.06 405.57 410.85 409.88 411.04 414.95 C 411.58 420.53 406.64 425.84 401.05 425.78 C 395.82 425.85 390.56 426.08 385.35 425.59 C 381.61 425.10 379.33 421.88 377.21 419.12 C 376.96 426.10 377.60 433.11 376.91 440.07 C 373.58 440.54 370.21 440.32 366.88 440.66 C 361.38 441.32 358.51 448.60 362.19 452.78 C 365.85 457.19 372.15 455.13 377.09 455.60 C 377.20 459.68 377.22 463.77 377.13 467.87 C 373.19 468.05 369.14 467.37 365.30 468.40 C 360.49 470.05 358.93 476.87 362.53 480.46 C 364.75 483.06 368.43 482.81 371.49 483.36 C 360.77 489.05 349.69 494.18 338.17 498.00 C 337.98 462.64 338.15 427.28 338.08 391.92 Z" />
</g>
<g id="#a2ec00ff">
<path fill="#a2ec00" opacity="1.00" d=" M 273.40 119.34 C 283.78 114.83 296.65 117.36 304.63 125.36 C 328.51 149.16 352.32 173.03 376.16 196.87 C 378.19 198.85 380.09 201.14 382.76 202.29 C 386.81 204.08 391.83 203.16 395.02 200.09 C 401.64 193.70 407.96 187.01 414.63 180.66 C 424.19 171.88 440.36 172.22 449.58 181.35 C 458.46 190.06 467.15 198.97 476.02 207.70 C 476.04 211.55 476.04 215.41 476.02 219.27 C 461.91 232.77 444.69 244.11 425.03 247.00 C 404.98 250.26 384.51 244.06 367.47 233.59 C 360.31 229.46 353.99 224.08 347.16 219.46 L 346.28 219.62 C 347.88 218.63 349.13 216.99 348.95 215.01 C 348.98 209.65 349.01 204.29 348.93 198.93 C 349.01 196.36 346.61 194.13 344.07 194.30 C 336.63 194.19 329.19 194.32 321.74 194.21 C 291.16 194.26 260.56 194.37 229.98 194.16 C 227.28 194.08 224.59 194.05 221.90 194.05 C 219.55 189.79 218.58 184.88 219.00 180.04 C 219.27 177.32 218.91 174.57 217.52 172.19 C 232.12 157.58 246.73 142.99 261.32 128.38 C 264.80 124.72 268.62 121.21 273.40 119.34 Z" />
</g>
<g id="#0080f4ff">
<path fill="#0080f4" opacity="1.00" d=" M 112.99 164.10 C 137.54 160.80 160.28 148.50 178.20 131.65 C 180.39 132.93 180.04 135.75 180.39 137.91 C 180.80 145.15 182.98 152.61 188.17 157.89 C 193.51 163.71 201.41 166.20 209.04 167.16 C 212.42 167.46 215.49 169.18 217.40 172.00 C 210.14 179.36 202.74 186.59 195.51 193.99 C 190.87 194.70 184.72 192.13 181.28 196.29 C 179.87 200.29 180.77 204.64 180.54 208.79 C 176.28 213.16 172.03 217.55 167.58 221.72 C 164.15 224.75 158.77 224.66 155.47 221.48 C 149.86 216.10 144.48 210.49 138.94 205.05 C 134.87 201.12 131.15 196.61 125.99 194.07 C 115.11 188.37 100.73 190.22 91.85 198.80 C 80.30 210.21 68.85 221.73 57.39 233.23 C 49.94 227.71 42.85 221.74 35.89 215.62 C 35.73 196.93 35.96 178.24 35.77 159.55 C 35.99 153.01 35.77 146.46 35.89 139.91 C 42.37 144.98 49.08 149.80 56.38 153.63 C 73.57 162.84 93.62 166.77 112.99 164.10 Z" />
</g>
<g id="#00c82fff">
<path fill="#00c82f" opacity="1.00" d=" M 217.40 172.00 L 217.52 172.19 C 218.91 174.57 219.27 177.32 219.00 180.04 C 218.58 184.88 219.55 189.79 221.90 194.05 C 213.10 193.98 204.31 194.09 195.51 193.99 C 202.74 186.59 210.14 179.36 217.40 172.00 Z" />
<path fill="#00c82f" opacity="1.00" d=" M 91.85 198.80 C 100.73 190.22 115.11 188.37 125.99 194.07 C 131.15 196.61 134.87 201.12 138.94 205.05 C 144.48 210.49 149.86 216.10 155.47 221.48 C 158.77 224.66 164.15 224.75 167.58 221.72 C 172.03 217.55 176.28 213.16 180.54 208.79 C 180.75 212.54 179.32 218.50 184.02 219.93 C 193.39 220.11 202.77 219.94 212.15 220.00 C 201.76 227.51 190.88 234.31 180.03 241.14 C 164.15 250.47 146.69 258.42 127.99 259.09 C 102.13 260.25 77.62 248.42 57.39 233.23 C 68.85 221.73 80.30 210.21 91.85 198.80 Z" />
<path fill="#00c82f" opacity="1.00" d=" M 244.16 220.00 C 270.02 220.00 295.87 220.00 321.73 220.00 C 329.91 219.76 338.15 220.49 346.28 219.62 L 347.16 219.46 C 353.99 224.08 360.31 229.46 367.47 233.59 C 384.51 244.06 404.98 250.26 425.03 247.00 C 444.69 244.11 461.91 232.77 476.02 219.27 C 476.15 235.24 476.07 251.21 476.07 267.17 C 403.36 267.20 330.65 267.08 257.94 267.23 C 258.17 263.25 258.89 258.91 256.72 255.30 C 253.07 247.89 242.33 247.56 239.64 239.43 C 237.31 232.56 242.25 226.31 244.16 220.00 Z" />
</g>
<g id="#86fdfbff">
<path fill="#86fdfb" opacity="1.00" d=" M 181.28 196.29 C 184.72 192.13 190.87 194.70 195.51 193.99 C 204.31 194.09 213.10 193.98 221.90 194.05 C 224.59 194.05 227.28 194.08 229.98 194.16 C 228.60 195.47 226.77 196.79 226.96 198.95 C 226.84 204.65 226.73 210.38 227.03 216.08 C 227.06 217.90 228.80 218.86 229.94 220.01 C 224.01 219.99 218.08 220.00 212.15 220.00 C 202.77 219.94 193.39 220.11 184.02 219.93 C 179.32 218.50 180.75 212.54 180.54 208.79 C 180.77 204.64 179.87 200.29 181.28 196.29 Z" />
<path fill="#86fdfb" opacity="1.00" d=" M 35.88 267.28 C 58.21 267.28 80.54 267.26 102.87 267.29 C 102.74 276.06 102.79 284.82 102.84 293.59 C 102.17 293.57 100.83 293.54 100.16 293.52 C 90.13 293.56 80.09 293.44 70.07 293.57 C 66.12 293.41 62.88 297.12 63.20 300.97 C 63.18 317.32 63.20 333.67 63.19 350.02 C 62.80 353.90 65.96 357.76 69.94 357.72 C 80.31 357.81 90.69 357.77 101.06 357.73 C 101.50 357.72 102.38 357.69 102.82 357.68 C 102.78 366.41 102.78 375.14 102.83 383.87 C 92.22 383.90 81.61 383.84 71.00 383.89 C 66.97 383.44 63.37 387.01 63.17 390.92 C 62.93 399.99 63.42 409.08 62.92 418.15 C 52.51 404.53 43.02 390.10 35.79 374.54 C 36.08 338.79 35.89 303.03 35.88 267.28 Z" />
</g>
<g id="#e6f7feff">
<path fill="#e6f7fe" opacity="1.00" d=" M 229.98 194.16 C 260.56 194.37 291.16 194.26 321.74 194.21 C 321.71 202.81 321.73 211.40 321.73 220.00 C 295.87 220.00 270.02 220.00 244.16 220.00 C 239.42 220.00 234.68 219.99 229.94 220.01 C 228.80 218.86 227.06 217.90 227.03 216.08 C 226.73 210.38 226.84 204.65 226.96 198.95 C 226.77 196.79 228.60 195.47 229.98 194.16 Z" />
<path fill="#e6f7fe" opacity="1.00" d=" M 102.87 267.29 C 154.56 267.28 206.25 267.41 257.94 267.23 C 330.65 267.08 403.36 267.20 476.07 267.17 C 476.04 302.99 475.95 338.81 476.12 374.63 C 468.50 390.33 458.92 404.99 448.40 418.88 C 448.76 410.26 448.45 401.63 448.57 393.01 C 448.74 390.21 448.01 387.16 445.62 385.46 C 443.20 383.44 439.88 384.00 436.98 383.93 C 418.66 383.91 400.33 384.01 382.01 383.86 C 369.67 383.94 357.33 383.78 344.99 383.94 C 340.96 383.91 337.82 388.05 338.08 391.92 C 338.15 427.28 337.98 462.64 338.17 498.00 C 329.23 500.91 320.23 503.65 311.08 505.85 C 311.04 467.89 311.09 429.94 311.06 391.99 C 311.42 387.99 308.13 383.99 304.04 383.99 C 284.09 383.83 264.14 384.05 244.19 383.87 C 232.11 383.92 220.03 383.82 207.96 383.91 C 203.68 383.67 200.29 387.94 200.70 392.05 C 200.63 429.95 200.68 467.86 200.68 505.76 C 191.53 503.51 182.49 500.84 173.57 497.83 C 173.62 462.88 173.56 427.93 173.60 392.98 C 173.78 390.18 173.05 387.09 170.61 385.41 C 168.16 383.44 164.86 384.00 161.96 383.92 C 143.66 383.91 125.36 384.02 107.07 383.86 C 105.65 383.86 104.24 383.86 102.83 383.87 C 102.78 375.14 102.78 366.41 102.82 357.68 C 215.89 357.47 328.96 357.71 442.02 357.56 C 445.90 357.63 448.94 353.84 448.53 350.08 C 448.51 333.43 448.60 316.77 448.49 300.13 C 448.52 296.28 444.80 293.24 441.05 293.66 C 328.32 293.61 215.58 293.76 102.84 293.59 C 102.79 284.82 102.74 276.06 102.87 267.29 Z" />
</g>
<g id="#02ad22ff">
<path fill="#02ad22" opacity="1.00" d=" M 35.89 215.62 C 42.85 221.74 49.94 227.71 57.39 233.23 C 77.62 248.42 102.13 260.25 127.99 259.09 C 146.69 258.42 164.15 250.47 180.03 241.14 C 190.88 234.31 201.76 227.51 212.15 220.00 C 218.08 220.00 224.01 219.99 229.94 220.01 C 234.68 219.99 239.42 220.00 244.16 220.00 C 242.25 226.31 237.31 232.56 239.64 239.43 C 242.33 247.56 253.07 247.89 256.72 255.30 C 258.89 258.91 258.17 263.25 257.94 267.23 C 206.25 267.41 154.56 267.28 102.87 267.29 C 80.54 267.26 58.21 267.28 35.88 267.28 C 35.84 250.06 36.01 232.84 35.89 215.62 Z" />
</g>
<g id="#fce395ff">
<path fill="#fce395" opacity="1.00" d=" M 86.39 444.10 C 88.03 442.67 89.67 440.98 91.94 440.67 C 109.60 440.52 127.26 440.62 144.92 440.61 C 149.03 440.29 152.87 443.81 152.86 447.94 C 153.06 452.15 149.20 455.84 145.01 455.57 C 130.30 455.63 115.58 455.58 100.87 455.59 C 101.11 456.12 101.60 457.18 101.84 457.71 C 96.43 453.47 91.32 448.88 86.39 444.10 Z" />
<path fill="#fce395" opacity="1.00" d=" M 224.50 452.49 C 221.25 448.38 223.85 441.84 228.86 440.71 C 246.56 440.46 264.27 440.66 281.97 440.60 C 285.85 440.20 289.74 443.03 290.25 446.96 C 291.03 451.23 287.41 455.59 283.06 455.54 C 268.66 455.68 254.26 455.55 239.86 455.60 C 234.76 455.12 228.10 457.30 224.50 452.49 Z" />
<path fill="#fce395" opacity="1.00" d=" M 362.19 452.78 C 358.51 448.60 361.38 441.32 366.88 440.66 C 384.57 440.53 402.27 440.60 419.96 440.62 C 422.43 440.42 424.47 441.91 426.40 443.22 C 421.28 448.32 415.88 453.14 410.16 457.55 C 410.50 457.07 411.18 456.11 411.52 455.63 C 400.04 455.55 388.56 455.62 377.09 455.60 C 372.15 455.13 365.85 457.19 362.19 452.78 Z" />
<path fill="#fce395" opacity="1.00" d=" M 115.66 468.03 C 125.79 467.74 135.93 467.80 146.06 467.97 C 151.55 468.12 154.83 475.21 151.56 479.58 C 149.26 483.30 144.44 482.82 140.68 483.35 C 131.99 478.85 123.64 473.69 115.66 468.03 Z" />
<path fill="#fce395" opacity="1.00" d=" M 228.17 468.28 C 232.01 467.47 235.99 468.00 239.89 467.87 C 253.91 467.87 267.93 467.85 281.95 467.87 C 285.73 467.52 289.57 470.16 290.20 473.98 C 291.17 478.28 287.54 482.87 283.11 482.81 C 268.70 482.94 254.28 482.82 239.87 482.87 C 234.90 482.37 228.59 484.50 224.83 480.20 C 221.40 476.45 223.27 469.69 228.17 468.28 Z" />
<path fill="#fce395" opacity="1.00" d=" M 365.30 468.40 C 369.14 467.37 373.19 468.05 377.13 467.87 C 383.53 467.94 389.94 467.67 396.34 468.05 C 388.41 473.69 380.08 478.78 371.49 483.36 C 368.43 482.81 364.75 483.06 362.53 480.46 C 358.93 476.87 360.49 470.05 365.30 468.40 Z" />
</g>
<g id="#c2a432c8">
<path fill="#c2a432" opacity="0.78" d=" M 235.32 511.05 C 236.84 511.01 238.36 510.93 239.90 510.95 C 243.07 511.17 246.21 511.71 249.38 512.00 L 235.99 512.00 L 235.32 511.05 Z" />
</g>
<g id="#b8a036be">
<path fill="#b8a036" opacity="0.75" d=" M 262.65 512.00 C 266.87 511.75 271.04 510.76 275.29 511.02 L 276.80 512.00 L 262.65 512.00 Z" />
</g>
</svg>
