<?xml version="1.0" encoding="UTF-8" ?>
<!DOCTYPE svg PUBLIC "-//W3C//DTD SVG 1.1//EN" "http://www.w3.org/Graphics/SVG/1.1/DTD/svg11.dtd">
<svg width="512pt" height="512pt" viewBox="0 0 512 512" version="1.1" xmlns="http://www.w3.org/2000/svg">
<g id="#804231ff">
<path fill="#804231" opacity="1.00" d=" M 245.55 40.83 C 267.06 38.25 290.40 40.65 308.67 53.20 C 312.20 55.29 314.53 59.53 318.91 59.94 C 331.36 62.34 343.12 68.78 351.27 78.58 C 361.27 90.27 365.46 105.86 366.01 120.99 C 366.16 124.57 365.59 128.22 366.29 131.77 C 367.77 135.55 369.78 139.16 370.60 143.18 C 373.01 153.36 370.25 164.33 363.88 172.53 C 359.71 178.09 354.56 182.83 348.81 186.72 C 344.30 188.84 338.35 188.83 334.48 185.39 C 332.15 183.42 330.78 180.61 329.59 177.87 C 332.74 171.10 338.31 165.45 339.72 157.90 C 340.84 150.29 340.09 142.28 336.64 135.33 C 334.23 130.92 335.19 125.81 334.97 121.02 C 334.27 108.28 331.39 95.33 324.51 84.42 C 317.37 73.78 306.76 65.31 294.35 61.75 C 290.43 60.36 285.76 60.49 282.62 57.40 C 277.66 53.10 272.09 49.48 266.05 46.89 C 259.48 44.07 252.40 42.77 245.55 40.83 Z" />
</g>
<g id="#8c4a37ff">
<path fill="#8c4a37" opacity="1.00" d=" M 206.77 49.77 C 219.40 45.66 232.34 42.39 245.55 40.83 C 252.40 42.77 259.48 44.07 266.05 46.89 C 272.09 49.48 277.66 53.10 282.62 57.40 C 285.76 60.49 290.43 60.36 294.35 61.75 C 306.76 65.31 317.37 73.78 324.51 84.42 C 331.39 95.33 334.27 108.28 334.97 121.02 C 335.19 125.81 334.23 130.92 336.64 135.33 C 340.09 142.28 340.84 150.29 339.72 157.90 C 338.31 165.45 332.74 171.10 329.59 177.87 C 327.13 170.04 323.31 162.49 317.21 156.86 C 312.43 152.28 307.37 147.80 304.04 141.99 C 301.05 137.35 299.60 131.96 297.05 127.09 C 294.15 130.52 291.57 134.28 288.10 137.18 C 280.59 143.75 270.83 147.11 261.10 148.67 C 248.81 150.81 236.28 149.04 223.93 150.50 C 209.80 152.16 195.24 156.68 184.90 166.88 C 179.65 171.85 177.31 179.08 171.99 183.97 C 170.09 185.86 167.45 186.61 164.99 187.47 C 157.37 184.82 151.09 179.11 146.40 172.67 C 140.72 164.43 139.54 153.86 141.74 144.25 C 142.66 140.17 145.17 136.27 144.05 131.95 C 140.99 110.48 149.74 88.18 165.56 73.57 C 177.15 62.45 191.79 55.16 206.77 49.77 Z" />
</g>
<g id="#ebad88ff">
<path fill="#ebad88" opacity="1.00" d=" M 288.10 137.18 C 291.57 134.28 294.15 130.52 297.05 127.09 C 299.60 131.96 301.05 137.35 304.04 141.99 C 307.37 147.80 312.43 152.28 317.21 156.86 C 318.40 169.16 317.37 181.54 318.15 193.84 C 315.86 192.74 313.58 191.47 311.01 191.20 C 298.84 189.75 286.25 190.49 274.65 194.64 C 272.40 195.47 270.08 196.85 269.23 199.23 C 267.74 202.82 269.53 207.48 273.25 208.84 C 276.14 209.98 279.22 208.78 282.07 208.11 C 288.63 206.08 295.53 205.34 302.37 205.55 C 307.67 205.74 313.47 207.62 318.16 204.18 C 316.81 223.78 320.07 243.96 314.15 263.07 C 305.79 293.10 281.08 317.85 251.08 326.28 C 247.89 327.11 244.72 328.01 241.55 328.87 C 237.75 328.18 233.94 327.49 230.23 326.40 C 204.74 319.10 182.83 300.34 171.85 276.18 C 166.13 263.85 163.26 250.25 163.24 236.67 C 163.34 220.48 163.11 204.30 163.31 188.12 C 163.73 187.96 164.57 187.63 164.99 187.47 C 167.45 186.61 170.09 185.86 171.99 183.97 C 177.31 179.08 179.65 171.85 184.90 166.88 C 195.24 156.68 209.80 152.16 223.93 150.50 C 236.28 149.04 248.81 150.81 261.10 148.67 C 270.83 147.11 280.59 143.75 288.10 137.18 M 199.39 191.47 C 195.31 191.91 191.71 195.87 192.57 200.06 C 192.98 204.05 197.02 207.05 200.97 206.29 C 211.10 204.89 221.60 205.28 231.37 208.49 C 234.39 209.51 238.07 210.05 240.64 207.72 C 244.82 204.48 243.82 197.02 238.77 195.22 C 226.32 190.39 212.53 189.56 199.39 191.47 M 211.17 251.28 C 207.04 252.86 205.72 258.30 207.99 261.92 C 217.69 279.02 237.80 288.38 257.08 287.92 C 274.12 288.32 291.68 280.74 301.45 266.47 C 303.56 263.19 306.23 259.30 304.64 255.24 C 303.00 250.53 296.10 248.98 292.68 252.64 C 290.03 256.02 288.19 260.05 284.90 262.92 C 276.50 271.01 264.22 273.60 252.89 272.69 C 243.40 272.08 233.89 268.61 226.93 261.98 C 224.05 259.49 222.21 256.11 219.82 253.21 C 217.87 250.61 214.04 249.86 211.17 251.28 Z" />
<path fill="#ebad88" opacity="1.00" d=" M 96.38 192.51 C 98.95 191.26 101.72 189.07 104.72 190.25 C 115.60 193.95 124.02 202.70 129.73 212.44 C 130.72 218.33 133.42 223.89 133.36 229.94 C 133.31 240.30 133.23 250.66 133.31 261.02 C 133.32 267.13 133.44 273.28 132.44 279.32 C 128.23 306.42 105.07 329.65 77.82 333.36 C 75.65 332.95 73.54 332.32 71.43 331.70 C 53.05 326.40 37.21 312.72 29.69 295.10 C 34.64 271.78 38.88 247.45 52.21 227.17 C 63.04 211.43 80.04 201.61 96.38 192.51 Z" />
<path fill="#ebad88" opacity="1.00" d=" M 442.47 199.44 C 446.05 197.14 448.40 193.50 451.63 190.79 C 453.12 194.12 454.51 197.50 456.29 200.69 C 458.69 205.00 462.51 208.22 465.94 211.67 C 466.15 226.76 466.07 241.84 466.06 256.92 C 466.04 265.26 466.50 273.71 464.71 281.92 C 459.53 307.93 437.08 329.52 410.79 333.38 C 408.54 332.96 406.34 332.32 404.16 331.68 C 390.14 327.62 377.58 318.77 369.11 306.88 C 360.92 295.61 356.64 281.64 356.83 267.73 C 356.84 258.52 356.75 249.30 356.85 240.08 C 361.84 240.34 367.32 239.80 371.17 236.26 C 378.32 229.95 380.99 220.27 382.39 211.17 C 387.46 209.46 392.57 207.74 397.91 207.07 C 406.23 205.77 414.69 206.92 423.03 205.96 C 429.86 205.21 436.73 203.32 442.47 199.44 Z" />
</g>
<g id="#ffbd54ff">
<path fill="#ffbd54" opacity="1.00" d=" M 411.33 129.46 C 427.12 127.07 444.30 128.23 458.18 136.78 C 461.35 138.49 463.43 142.06 467.17 142.68 C 477.55 144.73 487.25 150.93 492.89 159.97 C 498.53 168.86 500.53 179.60 500.22 190.01 C 499.79 194.99 503.70 198.95 503.88 203.86 C 504.92 210.48 502.63 217.07 498.78 222.40 C 495.80 226.52 491.92 229.89 487.88 232.93 C 484.47 234.11 480.33 234.21 477.63 231.46 C 473.87 227.56 473.03 221.90 470.46 217.27 C 473.98 210.88 473.55 203.12 470.47 196.64 C 468.36 191.99 469.25 186.80 468.82 181.87 C 467.83 170.54 463.27 159.11 454.41 151.65 C 448.41 145.81 439.95 144.17 432.84 140.20 C 428.01 137.68 423.51 134.48 418.34 132.68 C 415.92 131.80 413.59 130.70 411.33 129.46 Z" />
<path fill="#ffbd54" opacity="1.00" d=" M 68.96 134.27 C 78.29 132.04 88.08 131.90 97.50 133.62 C 102.12 134.54 106.85 135.95 110.35 139.27 C 120.90 135.51 132.63 138.16 141.74 144.25 C 139.54 153.86 140.72 164.43 146.40 172.67 C 143.41 174.10 140.26 175.45 137.93 177.89 C 133.78 181.99 131.61 187.62 130.30 193.20 C 123.59 180.41 113.02 169.54 100.04 163.09 C 92.52 159.43 85.79 154.02 81.19 146.99 C 77.94 142.10 75.11 136.02 68.96 134.27 Z" />
<path fill="#ffbd54" opacity="1.00" d=" M 144.26 238.66 C 150.52 241.38 157.48 239.84 163.24 236.67 C 163.26 250.25 166.13 263.85 171.85 276.18 C 169.76 291.53 166.12 307.24 157.27 320.22 C 156.49 321.89 153.69 321.52 153.44 319.66 C 151.61 312.22 150.34 304.63 148.69 297.14 C 146.04 283.68 143.61 270.14 142.23 256.48 C 143.80 250.66 143.95 244.63 144.26 238.66 Z" />
</g>
<g id="#ffd659ff">
<path fill="#ffd659" opacity="1.00" d=" M 370.60 143.18 C 383.06 135.86 397.19 131.94 411.33 129.46 C 413.59 130.70 415.92 131.80 418.34 132.68 C 423.51 134.48 428.01 137.68 432.84 140.20 C 439.95 144.17 448.41 145.81 454.41 151.65 C 463.27 159.11 467.83 170.54 468.82 181.87 C 469.25 186.80 468.36 191.99 470.47 196.64 C 473.55 203.12 473.98 210.88 470.46 217.27 C 469.15 215.26 467.63 213.39 465.94 211.67 C 462.51 208.22 458.69 205.00 456.29 200.69 C 454.51 197.50 453.12 194.12 451.63 190.79 C 448.40 193.50 446.05 197.14 442.47 199.44 C 436.73 203.32 429.86 205.21 423.03 205.96 C 414.69 206.92 406.23 205.77 397.91 207.07 C 392.57 207.74 387.46 209.46 382.39 211.17 C 383.19 200.55 382.56 188.84 375.93 179.99 C 373.06 175.99 368.55 173.70 363.88 172.53 C 370.25 164.33 373.01 153.36 370.60 143.18 Z" />
<path fill="#ffd659" opacity="1.00" d=" M 27.76 158.68 C 38.31 146.27 53.12 137.81 68.96 134.27 C 75.11 136.02 77.94 142.10 81.19 146.99 C 85.79 154.02 92.52 159.43 100.04 163.09 C 113.02 169.54 123.59 180.41 130.30 193.20 C 129.17 199.55 129.25 206.03 129.73 212.44 C 124.02 202.70 115.60 193.95 104.72 190.25 C 101.72 189.07 98.95 191.26 96.38 192.51 C 80.04 201.61 63.04 211.43 52.21 227.17 C 38.88 247.45 34.64 271.78 29.69 295.10 C 28.01 302.82 26.58 310.68 23.81 318.10 C 21.64 319.61 20.42 316.92 19.45 315.42 C 8.88 297.54 0.64 277.63 0.00 256.61 L 0.00 253.23 C 0.32 235.00 1.96 216.65 6.98 199.07 C 11.15 184.43 17.77 170.27 27.76 158.68 Z" />
<path fill="#ffd659" opacity="1.00" d=" M 138.56 234.55 C 140.45 235.93 142.31 237.36 144.26 238.66 C 143.95 244.63 143.80 250.66 142.23 256.48 C 141.39 249.11 139.99 241.82 138.56 234.55 Z" />
<path fill="#ffd659" opacity="1.00" d=" M 230.20 363.15 C 247.40 363.20 264.60 363.20 281.80 363.16 C 273.49 399.06 264.75 434.86 256.32 470.74 C 256.17 470.70 255.86 470.62 255.71 470.58 C 247.14 434.79 238.55 399.00 230.20 363.15 Z" />
</g>
<g id="#e8916fff">
<path fill="#e8916f" opacity="1.00" d=" M 317.21 156.86 C 323.31 162.49 327.13 170.04 329.59 177.87 C 330.78 180.61 332.15 183.42 334.48 185.39 C 338.35 188.83 344.30 188.84 348.81 186.72 C 349.42 203.37 348.71 220.05 349.20 236.70 C 351.70 237.92 354.20 239.20 356.85 240.08 C 356.75 249.30 356.84 258.52 356.83 267.73 C 352.80 270.37 347.70 271.38 343.18 269.32 C 333.36 296.78 309.74 318.56 281.76 326.63 C 273.47 329.35 264.66 330.33 255.96 330.04 C 251.13 330.10 246.23 330.26 241.55 328.87 C 244.72 328.01 247.89 327.11 251.08 326.28 C 281.08 317.85 305.79 293.10 314.15 263.07 C 320.07 243.96 316.81 223.78 318.16 204.18 C 319.49 200.76 319.82 197.21 318.15 193.84 C 317.37 181.54 318.40 169.16 317.21 156.86 Z" />
<path fill="#e8916f" opacity="1.00" d=" M 137.93 177.89 C 140.26 175.45 143.41 174.10 146.40 172.67 C 151.09 179.11 157.37 184.82 164.99 187.47 C 164.57 187.63 163.73 187.96 163.31 188.12 C 163.11 204.30 163.34 220.48 163.24 236.67 C 157.48 239.84 150.52 241.38 144.26 238.66 C 142.31 237.36 140.45 235.93 138.56 234.55 C 139.99 241.82 141.39 249.11 142.23 256.48 C 143.61 270.14 146.04 283.68 148.69 297.14 C 141.05 314.00 125.46 326.65 107.84 331.93 C 98.15 334.69 87.73 335.24 77.82 333.36 C 105.07 329.65 128.23 306.42 132.44 279.32 C 133.44 273.28 133.32 267.13 133.31 261.02 C 133.23 250.66 133.31 240.30 133.36 229.94 C 133.42 223.89 130.72 218.33 129.73 212.44 C 129.25 206.03 129.17 199.55 130.30 193.20 C 131.61 187.62 133.78 181.99 137.93 177.89 Z" />
<path fill="#e8916f" opacity="1.00" d=" M 465.94 211.67 C 467.63 213.39 469.15 215.26 470.46 217.27 C 473.03 221.90 473.87 227.56 477.63 231.46 C 480.33 234.21 484.47 234.11 487.88 232.93 C 488.23 244.56 487.93 256.20 488.00 267.84 C 488.49 284.80 481.67 301.71 469.98 313.94 C 462.01 322.43 451.69 328.53 440.59 331.95 C 430.99 334.83 420.63 335.12 410.79 333.38 C 437.08 329.52 459.53 307.93 464.71 281.92 C 466.50 273.71 466.04 265.26 466.06 256.92 C 466.07 241.84 466.15 226.76 465.94 211.67 Z" />
</g>
<g id="#d98868ff">
<path fill="#d98868" opacity="1.00" d=" M 348.81 186.72 C 354.56 182.83 359.71 178.09 363.88 172.53 C 368.55 173.70 373.06 175.99 375.93 179.99 C 382.56 188.84 383.19 200.55 382.39 211.17 C 380.99 220.27 378.32 229.95 371.17 236.26 C 367.32 239.80 361.84 240.34 356.85 240.08 C 354.20 239.20 351.70 237.92 349.20 236.70 C 348.71 220.05 349.42 203.37 348.81 186.72 Z" />
<path fill="#d98868" opacity="1.00" d=" M 199.39 191.47 C 212.53 189.56 226.32 190.39 238.77 195.22 C 243.82 197.02 244.82 204.48 240.64 207.72 C 238.07 210.05 234.39 209.51 231.37 208.49 C 221.60 205.28 211.10 204.89 200.97 206.29 C 197.02 207.05 192.98 204.05 192.57 200.06 C 191.71 195.87 195.31 191.91 199.39 191.47 Z" />
<path fill="#d98868" opacity="1.00" d=" M 274.65 194.64 C 286.25 190.49 298.84 189.75 311.01 191.20 C 313.58 191.47 315.86 192.74 318.15 193.84 C 319.82 197.21 319.49 200.76 318.16 204.18 C 313.47 207.62 307.67 205.74 302.37 205.55 C 295.53 205.34 288.63 206.08 282.07 208.11 C 279.22 208.78 276.14 209.98 273.25 208.84 C 269.53 207.48 267.74 202.82 269.23 199.23 C 270.08 196.85 272.40 195.47 274.65 194.64 Z" />
<path fill="#d98868" opacity="1.00" d=" M 487.88 232.93 C 491.92 229.89 495.80 226.52 498.78 222.40 C 501.49 223.42 504.38 224.44 506.32 226.73 C 510.41 231.20 511.61 237.47 512.00 243.34 L 512.00 245.78 C 511.59 253.82 509.81 262.90 503.17 268.19 C 498.72 271.73 492.51 270.66 488.00 267.84 C 487.93 256.20 488.23 244.56 487.88 232.93 Z" />
<path fill="#d98868" opacity="1.00" d=" M 211.17 251.28 C 214.04 249.86 217.87 250.61 219.82 253.21 C 222.21 256.11 224.05 259.49 226.93 261.98 C 233.89 268.61 243.40 272.08 252.89 272.69 C 264.22 273.60 276.50 271.01 284.90 262.92 C 288.19 260.05 290.03 256.02 292.68 252.64 C 296.10 248.98 303.00 250.53 304.64 255.24 C 306.23 259.30 303.56 263.19 301.45 266.47 C 291.68 280.74 274.12 288.32 257.08 287.92 C 237.80 288.38 217.69 279.02 207.99 261.92 C 205.72 258.30 207.04 252.86 211.17 251.28 Z" />
<path fill="#d98868" opacity="1.00" d=" M 230.23 326.40 C 233.94 327.49 237.75 328.18 241.55 328.87 C 246.23 330.26 251.13 330.10 255.96 330.04 C 264.66 330.33 273.47 329.35 281.76 326.63 C 281.78 338.75 281.66 350.86 281.84 362.97 L 281.80 363.16 C 264.60 363.20 247.40 363.20 230.20 363.15 L 230.16 362.98 C 230.33 350.79 230.23 338.60 230.23 326.40 Z" />
<path fill="#d98868" opacity="1.00" d=" M 71.43 331.70 C 73.54 332.32 75.65 332.95 77.82 333.36 C 87.73 335.24 98.15 334.69 107.84 331.93 C 107.84 340.30 107.86 348.66 107.85 357.03 L 107.82 357.30 C 95.70 357.35 83.58 357.31 71.46 357.49 C 71.36 348.89 71.41 340.29 71.43 331.70 Z" />
<path fill="#d98868" opacity="1.00" d=" M 404.16 331.68 C 406.34 332.32 408.54 332.96 410.79 333.38 C 420.63 335.12 430.99 334.83 440.59 331.95 C 440.57 340.36 440.65 348.78 440.54 357.19 L 440.49 357.31 C 431.00 357.18 421.51 357.37 412.02 357.47 C 409.37 357.42 406.62 357.65 404.10 356.70 C 404.20 348.36 404.14 340.02 404.16 331.68 Z" />
</g>
<g id="#d6244dff">
<path fill="#d6244d" opacity="1.00" d=" M 56.86 354.58 C 60.54 353.50 64.04 351.77 67.87 351.25 C 70.62 351.93 70.55 355.33 71.46 357.49 C 83.58 357.31 95.70 357.35 107.82 357.30 L 107.85 357.03 C 108.71 355.11 108.72 352.11 111.07 351.34 C 113.51 351.25 115.77 352.43 118.06 353.11 C 122.83 354.99 128.29 355.63 132.13 359.32 C 131.84 364.20 131.86 369.09 131.94 373.97 C 132.08 379.46 130.71 384.90 131.30 390.39 C 125.33 397.69 118.30 404.07 112.12 411.19 C 104.39 418.73 97.61 427.19 89.68 434.51 C 95.87 408.93 101.83 383.30 107.95 357.70 C 95.74 357.67 83.53 357.59 71.32 357.69 C 77.31 383.22 83.46 408.71 89.42 434.25 C 84.18 429.97 80.18 424.44 75.31 419.78 C 67.83 411.89 60.47 403.88 52.88 396.09 C 50.57 393.48 47.29 390.91 47.61 387.03 C 47.57 377.84 47.70 368.65 47.56 359.46 C 49.58 356.26 53.59 355.78 56.86 354.58 Z" />
</g>
<g id="#20b5c7ff">
<path fill="#20b5c7" opacity="1.00" d=" M 391.31 354.13 C 394.47 353.18 397.50 351.48 400.85 351.34 C 403.03 351.76 402.86 354.27 403.30 355.95 C 403.50 356.14 403.90 356.51 404.10 356.70 C 406.62 357.65 409.37 357.42 412.02 357.47 C 421.51 357.37 431.00 357.18 440.49 357.31 L 440.54 357.19 C 441.58 355.24 441.46 351.78 444.17 351.29 C 446.78 351.55 449.19 352.67 451.65 353.50 C 456.04 355.19 460.90 356.03 464.57 359.17 C 463.78 369.18 464.20 379.25 464.10 389.29 C 463.55 391.91 461.27 393.63 459.60 395.56 C 447.09 408.39 435.19 421.82 422.54 434.51 C 428.45 408.86 434.75 383.30 440.66 357.66 C 428.45 357.66 416.24 357.32 404.04 357.90 C 410.23 383.31 416.06 408.80 422.25 434.20 C 417.15 430.16 413.20 424.95 408.65 420.35 C 400.25 411.70 392.19 402.72 383.76 394.09 C 382.19 392.35 380.17 390.55 380.34 387.98 C 380.13 378.47 380.55 368.95 380.19 359.44 C 383.05 356.23 387.48 355.60 391.31 354.13 Z" />
</g>
<g id="#50475eff">
<path fill="#50475e" opacity="1.00" d=" M 221.69 354.62 C 223.58 354.18 225.92 352.78 227.57 354.48 C 229.02 357.08 229.38 360.13 230.16 362.98 L 230.20 363.15 C 238.55 399.00 247.14 434.79 255.71 470.58 C 252.19 469.90 249.56 467.31 246.73 465.32 C 236.55 457.82 226.31 450.41 216.01 443.06 C 214.65 442.04 213.25 441.04 212.18 439.71 C 210.53 433.29 212.72 426.46 211.08 420.04 C 207.31 415.97 202.02 413.73 197.93 410.01 C 196.35 408.85 196.79 406.69 196.60 405.00 C 196.57 391.88 196.74 378.76 196.49 365.64 C 197.07 363.93 198.22 362.46 200.02 361.98 C 207.20 359.40 214.50 357.17 221.69 354.62 Z" />
<path fill="#50475e" opacity="1.00" d=" M 284.46 354.45 C 286.11 352.79 288.45 354.19 290.33 354.63 C 297.54 357.19 304.86 359.41 312.05 362.01 C 313.81 362.49 314.75 364.07 315.67 365.51 C 315.00 369.99 315.14 374.53 315.11 379.04 C 314.83 388.82 314.46 398.63 315.29 408.39 C 311.60 413.40 305.07 415.38 300.95 420.01 C 299.29 426.14 301.21 432.64 300.08 438.87 C 299.75 440.37 298.28 441.21 297.21 442.17 C 285.41 450.71 273.50 459.09 261.86 467.85 C 260.19 469.11 258.36 470.19 256.32 470.74 C 264.75 434.86 273.49 399.06 281.80 363.16 L 281.84 362.97 C 282.63 360.12 282.96 357.04 284.46 354.45 Z" />
</g>
<g id="#dcdfe8ff">
<path fill="#dcdfe8" opacity="1.00" d=" M 71.32 357.69 C 83.53 357.59 95.74 357.67 107.95 357.70 C 101.83 383.30 95.87 408.93 89.68 434.51 L 89.42 434.25 C 83.46 408.71 77.31 383.22 71.32 357.69 Z" />
<path fill="#dcdfe8" opacity="1.00" d=" M 404.04 357.90 C 416.24 357.32 428.45 357.66 440.66 357.66 C 434.75 383.30 428.45 408.86 422.54 434.51 L 422.25 434.20 C 416.06 408.80 410.23 383.31 404.04 357.90 Z" />
</g>
<g id="#ff2c5cff">
<path fill="#ff2c5c" opacity="1.00" d=" M 12.72 388.71 C 19.94 374.93 32.46 363.75 47.56 359.46 C 47.70 368.65 47.57 377.84 47.61 387.03 C 47.29 390.91 50.57 393.48 52.88 396.09 C 60.47 403.88 67.83 411.89 75.31 419.78 C 80.18 424.44 84.18 429.97 89.42 434.25 L 89.68 434.51 C 97.61 427.19 104.39 418.73 112.12 411.19 C 118.30 404.07 125.33 397.69 131.30 390.39 C 131.94 388.00 132.19 385.53 132.46 383.08 C 138.38 392.78 142.82 403.69 143.29 415.16 C 140.67 421.55 138.68 428.19 137.37 434.98 C 94.88 434.97 52.39 434.97 9.90 434.98 C 7.63 435.18 4.65 434.26 4.53 431.56 C 3.57 416.91 5.62 401.74 12.72 388.71 Z" />
</g>
<g id="#e62753ff">
<path fill="#e62753" opacity="1.00" d=" M 132.13 359.32 C 145.45 363.38 156.79 372.60 164.23 384.28 C 155.17 392.95 148.12 403.61 143.29 415.16 C 142.82 403.69 138.38 392.78 132.46 383.08 C 132.19 385.53 131.94 388.00 131.30 390.39 C 130.71 384.90 132.08 379.46 131.94 373.97 C 131.86 369.09 131.84 364.20 132.13 359.32 Z" />
</g>
<g id="#47d5e6ff">
<path fill="#47d5e6" opacity="1.00" d=" M 347.99 384.29 C 355.43 372.60 366.81 363.38 380.19 359.44 C 380.55 368.95 380.13 378.47 380.34 387.98 C 380.17 390.55 382.19 392.35 383.76 394.09 C 392.19 402.72 400.25 411.70 408.65 420.35 C 413.20 424.95 417.15 430.16 422.25 434.20 L 422.54 434.51 C 435.19 421.82 447.09 408.39 459.60 395.56 C 461.27 393.63 463.55 391.91 464.10 389.29 C 464.52 387.41 464.83 385.50 465.18 383.61 C 470.55 390.99 473.54 399.83 475.37 408.70 C 477.21 417.34 476.60 426.22 476.82 434.98 C 442.81 434.95 408.79 434.98 374.78 434.97 C 371.17 415.93 362.03 397.77 347.99 384.29 Z" />
</g>
<g id="#22c0d4ff">
<path fill="#22c0d4" opacity="1.00" d=" M 464.57 359.17 C 477.89 363.29 489.44 372.33 496.81 384.14 C 505.88 398.13 508.88 415.30 507.69 431.75 C 507.39 433.90 505.22 435.32 503.12 435.00 C 494.35 435.02 485.59 435.00 476.82 434.98 C 476.60 426.22 477.21 417.34 475.37 408.70 C 473.54 399.83 470.55 390.99 465.18 383.61 C 464.83 385.50 464.52 387.41 464.10 389.29 C 464.20 379.25 463.78 369.18 464.57 359.17 Z" />
</g>
<g id="#685c79ff">
<path fill="#685c79" opacity="1.00" d=" M 164.23 384.28 C 173.30 375.61 184.40 369.05 196.49 365.64 C 196.74 378.76 196.57 391.88 196.60 405.00 C 196.79 406.69 196.35 408.85 197.93 410.01 C 202.02 413.73 207.31 415.97 211.08 420.04 C 212.72 426.46 210.53 433.29 212.18 439.71 C 213.25 441.04 214.65 442.04 216.01 443.06 C 226.31 450.41 236.55 457.82 246.73 465.32 C 249.56 467.31 252.19 469.90 255.71 470.58 C 255.86 470.62 256.17 470.70 256.32 470.74 C 258.36 470.19 260.19 469.11 261.86 467.85 C 273.50 459.09 285.41 450.71 297.21 442.17 C 298.28 441.21 299.75 440.37 300.08 438.87 C 301.21 432.64 299.29 426.14 300.95 420.01 C 305.07 415.38 311.60 413.40 315.29 408.39 C 316.80 400.31 315.27 392.03 316.12 383.88 C 329.29 395.56 337.82 411.85 342.34 428.71 C 346.04 442.82 345.74 457.53 345.89 472.00 C 278.26 472.00 210.62 472.00 143.00 472.00 C 139.56 472.41 135.75 470.25 135.60 466.53 C 135.22 456.00 135.41 445.36 137.37 434.98 C 138.68 428.19 140.67 421.55 143.29 415.16 C 148.12 403.61 155.17 392.95 164.23 384.28 Z" />
</g>
<g id="#594f69ff">
<path fill="#594f69" opacity="1.00" d=" M 315.67 365.51 C 327.78 368.96 338.96 375.51 347.99 384.29 C 362.03 397.77 371.17 415.93 374.78 434.97 C 376.68 444.87 376.98 455.01 376.76 465.06 C 376.89 468.29 374.69 472.00 371.13 471.95 C 362.72 472.11 354.30 471.94 345.89 472.00 C 345.74 457.53 346.04 442.82 342.34 428.71 C 337.82 411.85 329.29 395.56 316.12 383.88 C 315.27 392.03 316.80 400.31 315.29 408.39 C 314.46 398.63 314.83 388.82 315.11 379.04 C 315.14 374.53 315.00 369.99 315.67 365.51 Z" />
</g>
</svg>
