<svg width="395" height="207" viewBox="0 0 395 207" fill="none" xmlns="http://www.w3.org/2000/svg">
<path d="M159.26 0H234.43C244.25 0.69 253.71 5.5 259.81 13.25C264.66 18.94 267.13 26.26 268 33.6V108.52C267.37 116.18 264.73 123.82 259.71 129.73C253.55 137.46 244.04 142.12 234.25 143H159.84C150.47 142.24 141.34 138.03 135.13 130.92C129.67 125 126.65 117.13 126 109.16V33.69C126.65 25.75 129.63 17.9 135.08 12C141.13 4.97 150.05 0.74 159.26 0ZM191.28 23.28C184.99 27.97 182.33 35.86 179.99 43.05C172.16 41.69 163.22 40.61 156.22 45.24C151.97 47.95 151.03 53.7 152.75 58.17C155.14 64.46 159.82 69.56 164.72 74.05C162.84 76.3 161.03 78.62 159.28 80.98C154.74 80.52 149.81 82.39 147.81 86.74C143.8 93.13 149.59 102.54 157.02 102.12C160.53 101.84 163.65 103.73 167.06 104.12C171.72 104.79 176.37 103.66 180.96 102.99C183.62 109.6 186.42 117.35 193.3 120.63C197.76 123.02 203.04 120.57 206.12 117.08C210.47 111.96 212.96 105.56 214.76 99.17C218.95 99.93 223.2 100.5 227.47 100.43C229.74 103.38 233.14 105.8 237.04 105.5C243.28 105.51 248.27 98.99 247.08 93C246.47 89.48 243.34 87.2 242.36 83.83C240.7 78.91 237.05 75.08 233.82 71.13C238.47 65.35 243.71 58.85 243.33 50.99C243.05 45.99 238.59 42.43 233.99 41.42C227.46 39.93 220.79 41.46 214.42 42.97C214.32 42.41 214.14 41.29 214.04 40.73C215.67 39.09 217.32 37.33 217.97 35.05C220.03 29.77 216.46 23.45 211.21 21.75C208.4 20.59 205.35 21.41 202.67 22.51C198.99 20.77 194.6 20.68 191.28 23.28Z" fill="#FF0657"/>
<path d="M206.43 25.56C211.09 24.19 215.84 29.37 214.06 33.91C212.8 38.27 206.57 39.87 203.47 36.45C199.78 33.22 201.76 26.61 206.43 25.56Z" fill="#FF0657"/>
<path d="M193.71 26.63C195.18 25.23 197.3 25.54 199.15 25.36C197.95 28.42 196.33 31.85 197.89 35.1C199.34 40.39 205.07 43.21 210.27 42.57L210.23 44.16C206.6 45.85 202.74 47.02 199.19 48.92C194.34 46.87 189.34 45.17 184.21 43.94C186.06 37.63 188.28 30.79 193.71 26.63Z" fill="#FF0657"/>
<path d="M215.66 46.98C221.91 45.61 228.6 44.01 234.87 46.1C237.77 47 239.61 50.09 239.07 53.08C238.29 58.93 234.59 63.9 230.78 68.21C226.62 64.61 222.22 61.28 217.53 58.4C216.94 54.58 216.37 50.77 215.66 46.98Z" fill="#FF0657"/>
<path d="M160.55 47.56C166.41 45.22 172.9 46.27 178.98 46.99C177.92 52.18 177.27 57.44 176.78 62.72C173.49 65.31 170.39 68.12 167.37 71.02C162.7 66.15 156.96 61.12 156.21 54C155.74 51.07 157.94 48.53 160.55 47.56Z" fill="#FF0657"/>
<path d="M183.18 48.1C186.85 49.04 190.47 50.15 194.06 51.37C189.68 53.87 185.38 56.53 181.23 59.4C181.69 55.6 182.31 51.82 183.18 48.1Z" fill="#FF0657"/>
<path d="M204.36 51.1C206.76 50.16 209.17 49.22 211.58 48.3C212.06 50.72 212.53 53.15 212.94 55.59C210.06 54.12 207.23 52.57 204.36 51.1Z" fill="#FF0657"/>
<path d="M180.8 65.01C186.52 60.59 192.72 56.82 199.17 53.57C204.11 55.57 208.82 58.06 213.4 60.76C214.14 68.26 214.11 75.83 213.3 83.32C209.33 86.07 205.15 88.52 200.87 90.76C193.94 88.16 187.36 84.79 181 81.03C180.69 75.69 180.74 70.35 180.8 65.01ZM194.24 62.3C190.07 63.63 186.78 67.6 186.72 72.05C186.32 77.43 190.57 82.68 196 83.14C201.9 84.06 207.85 79.05 207.89 73.08C208.6 66.04 200.92 60.05 194.24 62.3Z" fill="#FF0657"/>
<path d="M217.92 63.7C221.45 65.98 224.78 68.58 227.95 71.35C224.73 74.45 221.38 77.41 217.83 80.12C218.06 74.65 218.01 69.17 217.92 63.7Z" fill="#FF0657"/>
<path d="M195.33 66.46C199.43 64.99 204.18 68.57 203.56 72.97C203.78 77.98 197.07 80.73 193.4 77.64C189.46 74.84 190.57 67.72 195.33 66.46Z" fill="#FF0657"/>
<path d="M170.65 73.7C172.61 71.85 174.58 70.02 176.57 68.21C176.6 71.54 176.64 74.88 176.67 78.22C174.61 76.79 172.6 75.28 170.65 73.7Z" fill="#FF0657"/>
<path d="M217.3 85.64C222.18 82.27 226.7 78.42 230.97 74.32C233.83 77.12 236.13 80.41 238.09 83.89C235.11 84.13 231.94 84.56 229.75 86.82C226.82 89.05 226.14 92.86 225.9 96.31C222.49 96.13 219.1 95.69 215.74 95.08C216.36 91.95 216.86 88.8 217.3 85.64Z" fill="#FF0657"/>
<path d="M167.58 76.79C170.75 79.08 173.84 81.49 177.14 83.58C177.62 88.73 178.54 93.83 179.71 98.87C174.81 99.84 169.77 100.36 164.8 99.53C166.4 96.95 168.07 94.15 167.74 90.98C167.74 87.61 165.6 84.83 163.32 82.56C164.73 80.63 166.15 78.71 167.58 76.79Z" fill="#FF0657"/>
<path d="M155.38 85.43C159.8 83.85 164.71 88.44 163.46 92.98C162.73 98.08 155.25 99.8 152.24 95.74C149.34 92.39 151.03 86.53 155.38 85.43Z" fill="#FF0657"/>
<path d="M181.58 86.29C186.18 88.8 190.82 91.24 195.64 93.28C191.81 94.97 187.92 96.52 183.93 97.81C183.02 94 182.18 90.17 181.58 86.29Z" fill="#FF0657"/>
<path d="M235.44 88.49C240.11 87.37 244.48 92.48 242.77 96.94C241.58 101.28 235.58 102.9 232.41 99.67C228.33 96.52 230.41 89.24 235.44 88.49Z" fill="#FF0657"/>
<path d="M206.25 92.77C208.4 91.41 210.56 90.05 212.73 88.71C212.39 90.52 212.04 92.32 211.69 94.13C209.88 93.65 208.06 93.22 206.25 92.77Z" fill="#FF0657"/>
<path d="M185.09 101.94C190.55 100.06 195.93 97.95 201.14 95.46C204.25 96.53 207.4 97.46 210.57 98.34C208.84 104.13 206.96 110.24 202.63 114.66C200.75 116.56 197.83 118.37 195.17 116.96C189.5 114.01 187.16 107.58 185.09 101.94Z" fill="#FF0657"/>
<path d="M191.28 23.28C194.6 20.68 198.99 20.77 202.67 22.51C205.35 21.41 208.4 20.59 211.21 21.75C216.46 23.45 220.03 29.77 217.97 35.05C217.32 37.33 215.67 39.09 214.04 40.73C214.14 41.29 214.32 42.41 214.42 42.97C220.79 41.46 227.46 39.93 233.99 41.42C238.59 42.43 243.05 45.99 243.33 50.99C243.71 58.85 238.47 65.35 233.82 71.13C237.05 75.08 240.7 78.91 242.36 83.83C243.34 87.2 246.47 89.48 247.08 93C248.27 98.99 243.28 105.51 237.04 105.5C233.14 105.8 229.74 103.38 227.47 100.43C223.2 100.5 218.95 99.93 214.76 99.17C212.96 105.56 210.47 111.96 206.12 117.08C203.04 120.57 197.76 123.02 193.3 120.63C186.42 117.35 183.62 109.6 180.96 102.99C176.37 103.66 171.72 104.79 167.06 104.12C163.65 103.73 160.53 101.84 157.02 102.12C149.59 102.54 143.8 93.13 147.81 86.74C149.81 82.39 154.74 80.52 159.28 80.98C161.03 78.62 162.84 76.3 164.72 74.05C159.82 69.56 155.14 64.46 152.75 58.17C151.03 53.7 151.97 47.95 156.22 45.24C163.22 40.61 172.16 41.69 179.99 43.05C182.33 35.86 184.99 27.97 191.28 23.28ZM206.43 25.56C201.76 26.61 199.78 33.22 203.47 36.45C206.57 39.87 212.8 38.27 214.06 33.91C215.84 29.37 211.09 24.19 206.43 25.56ZM193.71 26.63C188.28 30.79 186.06 37.63 184.21 43.94C189.34 45.17 194.34 46.87 199.19 48.92C202.74 47.02 206.6 45.85 210.23 44.16L210.27 42.57C205.07 43.21 199.34 40.39 197.89 35.1C196.33 31.85 197.95 28.42 199.15 25.36C197.3 25.54 195.18 25.23 193.71 26.63ZM215.66 46.98C216.37 50.77 216.94 54.58 217.53 58.4C222.22 61.28 226.62 64.61 230.78 68.21C234.59 63.9 238.29 58.93 239.07 53.08C239.61 50.09 237.77 47 234.87 46.1C228.6 44.01 221.91 45.61 215.66 46.98ZM160.55 47.56C157.94 48.53 155.74 51.07 156.21 54C156.96 61.12 162.7 66.15 167.37 71.02C170.39 68.12 173.49 65.31 176.78 62.72C177.27 57.44 177.92 52.18 178.98 46.99C172.9 46.27 166.41 45.22 160.55 47.56ZM183.18 48.1C182.31 51.82 181.69 55.6 181.23 59.4C185.38 56.53 189.68 53.87 194.06 51.37C190.47 50.15 186.85 49.04 183.18 48.1ZM204.36 51.1C207.23 52.57 210.06 54.12 212.94 55.59C212.53 53.15 212.06 50.72 211.58 48.3C209.17 49.22 206.76 50.16 204.36 51.1ZM180.8 65.01C180.74 70.35 180.69 75.69 181 81.03C187.36 84.79 193.94 88.16 200.87 90.76C205.15 88.52 209.33 86.07 213.3 83.32C214.11 75.83 214.14 68.26 213.4 60.76C208.82 58.06 204.11 55.57 199.17 53.57C192.72 56.82 186.52 60.59 180.8 65.01ZM217.92 63.7C218.01 69.17 218.06 74.65 217.83 80.12C221.38 77.41 224.73 74.45 227.95 71.35C224.78 68.58 221.45 65.98 217.92 63.7ZM170.65 73.7C172.6 75.28 174.61 76.79 176.67 78.22C176.64 74.88 176.6 71.54 176.57 68.21C174.58 70.02 172.61 71.85 170.65 73.7ZM217.3 85.64C216.86 88.8 216.36 91.95 215.74 95.08C219.1 95.69 222.49 96.13 225.9 96.31C226.14 92.86 226.82 89.05 229.75 86.82C231.94 84.56 235.11 84.13 238.09 83.89C236.13 80.41 233.83 77.12 230.97 74.32C226.7 78.42 222.18 82.27 217.3 85.64ZM167.58 76.79C166.15 78.71 164.73 80.63 163.32 82.56C165.6 84.83 167.74 87.61 167.74 90.98C168.07 94.15 166.4 96.95 164.8 99.53C169.77 100.36 174.81 99.84 179.71 98.87C178.54 93.83 177.62 88.73 177.14 83.58C173.84 81.49 170.75 79.08 167.58 76.79ZM155.38 85.43C151.03 86.53 149.34 92.39 152.24 95.74C155.25 99.8 162.73 98.08 163.46 92.98C164.71 88.44 159.8 83.85 155.38 85.43ZM181.58 86.29C182.18 90.17 183.02 94 183.93 97.81C187.92 96.52 191.81 94.97 195.64 93.28C190.82 91.24 186.18 88.8 181.58 86.29ZM235.44 88.49C230.41 89.24 228.33 96.52 232.41 99.67C235.58 102.9 241.58 101.28 242.77 96.94C244.48 92.48 240.11 87.37 235.44 88.49ZM206.25 92.77C208.06 93.22 209.88 93.65 211.69 94.13C212.04 92.32 212.39 90.52 212.73 88.71C210.56 90.05 208.4 91.41 206.25 92.77ZM185.09 101.94C187.16 107.58 189.5 114.01 195.17 116.96C197.83 118.37 200.75 116.56 202.63 114.66C206.96 110.24 208.84 104.13 210.57 98.34C207.4 97.46 204.25 96.53 201.14 95.46C195.93 97.95 190.55 100.06 185.09 101.94Z" fill="white"/>
<path d="M194.24 62.3C200.92 60.05 208.6 66.04 207.89 73.08C207.85 79.05 201.9 84.06 196 83.14C190.57 82.68 186.32 77.43 186.72 72.05C186.78 67.6 190.07 63.63 194.24 62.3ZM195.33 66.46C190.57 67.72 189.46 74.84 193.4 77.64C197.07 80.73 203.78 77.98 203.56 72.97C204.18 68.57 199.43 64.99 195.33 66.46Z" fill="white"/>
<path d="M50.1663 156C53.5963 156 57.0163 156 60.4363 156C60.4363 172.33 60.4363 188.67 60.4363 205C57.0163 205 53.5963 205 50.1663 205C50.1663 188.67 50.1663 172.33 50.1663 156Z" fill="white"/>
<path d="M321.166 156C324.586 156 328.016 156 331.436 156C331.426 161.59 331.456 167.19 331.416 172.79C337.056 166.84 347.076 167.38 353.256 172.18C362.156 179.28 362.156 194.72 353.256 201.82C346.906 206.74 336.776 207.08 330.966 201.11C330.986 202.08 331.036 204.02 331.066 204.99C327.766 205 324.466 205 321.166 205C321.166 188.67 321.166 172.33 321.166 156ZM336.906 177.56C331.186 179.87 330.016 187.57 332.616 192.6C335.006 197.28 341.766 198.49 345.826 195.33C350.216 191.78 350.646 184.57 347.316 180.19C345.016 176.98 340.446 176.21 336.906 177.56Z" fill="white"/>
<path d="M5.73628 166.24C15.3163 155.35 34.5763 155.05 44.1963 166.06C41.8863 168.3 39.5963 170.54 37.2863 172.77C32.6263 166.67 23.3963 165.03 17.0663 169.47C8.67628 174.92 8.68628 189.08 17.0663 194.53C23.3263 198.86 32.4663 197.43 37.2763 191.58C39.5863 193.7 41.8763 195.83 44.2063 197.93C34.5463 208.92 15.2563 208.7 5.68628 197.7C-1.91372 189.08 -1.89372 174.84 5.73628 166.24Z" fill="white"/>
<path d="M240.966 159C244.496 159 248.036 159 251.566 159C251.566 171.51 251.566 184.03 251.576 196.54C259.326 196.52 267.086 196.54 274.836 196.53C274.836 199.35 274.836 202.17 274.836 205C263.546 205 252.256 205 240.966 205C240.966 189.67 240.966 174.33 240.966 159Z" fill="white"/>
<path d="M203.016 173.32C206.056 169.83 210.696 168.54 215.166 168.38C215.166 171.41 215.156 174.44 215.186 177.46C210.476 176.71 204.756 178.97 203.836 184.12C202.996 191.04 203.626 198.05 203.436 205C200.016 205 196.586 205 193.166 205C193.166 193 193.166 181 193.166 169C196.456 169 199.746 169 203.036 169C203.036 170.44 203.026 171.88 203.016 173.32Z" fill="white"/>
<path d="M71.1563 175.75C77.8063 166.75 92.6863 165.97 100.296 174.15C104.286 178.36 105.336 184.39 104.866 189.99C95.7963 190.04 86.7263 189.94 77.6663 190.04C80.1663 198.24 91.3963 199.01 97.1063 193.78C98.8963 195.76 100.706 197.73 102.536 199.67C95.4463 207.38 82.3163 207.24 74.2063 201.24C66.4563 195.49 65.4163 183.24 71.1563 175.75ZM77.6363 183.95C83.5463 184.03 89.4663 184.05 95.3663 183.93C94.5463 179.8 90.9563 176.22 86.5563 176.43C82.1363 176.19 78.3963 179.72 77.6363 183.95Z" fill="white"/>
<path d="M106.836 168.99C110.406 169.01 113.986 169 117.556 169C120.796 177.24 124.096 185.45 127.366 193.68C130.776 185.46 134.116 177.21 137.546 169C140.866 169 144.186 169 147.506 169C142.416 180.96 137.456 192.98 132.476 205C128.896 205 125.326 205.03 121.746 204.94C116.866 192.92 111.896 180.93 106.836 168.99Z" fill="white"/>
<path d="M152.596 175.19C159.726 166.32 175.196 166.14 182.196 175.25C185.546 179.36 186.236 184.86 185.866 189.99C176.796 190.04 167.726 189.94 158.656 190.04C161.176 198.24 172.396 199 178.106 193.78C179.906 195.77 181.716 197.74 183.556 199.7C176.386 207.36 163.286 207.26 155.156 201.2C147.256 195.29 146.386 182.61 152.596 175.19ZM158.636 183.94C164.546 184.03 170.456 184.04 176.366 183.94C175.586 180.49 173.126 177.27 169.496 176.63C164.546 175.34 159.416 178.96 158.636 183.94Z" fill="white"/>
<path d="M279.106 172.82C286.256 168.45 295.466 167.02 303.386 170.09C308.556 172.07 311.556 177.58 311.546 182.96C311.616 190.3 311.546 197.65 311.566 205C308.356 205 305.146 205 301.946 205C301.956 203.58 301.996 202.18 302.046 200.77C297.526 206.66 288.256 206.83 282.316 203.12C276.656 199.68 276.246 190.21 281.946 186.63C287.756 182.86 294.996 184.32 301.526 183.95C301.086 181.53 300.326 178.78 297.786 177.79C292.806 175.85 287.106 177.35 282.796 180.21C281.586 177.74 280.346 175.27 279.106 172.82ZM290.176 190.7C287.196 191.59 287.096 196.3 289.836 197.56C294.886 200.79 303.046 196.41 301.356 190.02C297.646 190.25 293.716 189.32 290.176 190.7Z" fill="white"/>
<path d="M368.706 171.22C376.356 166.96 386.066 167.96 393.756 171.64C392.596 174.11 391.446 176.59 390.306 179.07C385.786 176.92 380.436 175.42 375.526 177.16C373.616 177.82 372.426 180.68 374.556 181.85C380.016 184.16 386.616 183.22 391.566 186.82C396.876 190.69 395.586 199.63 390.036 202.68C381.606 207.32 371.036 205.88 362.656 201.8C363.836 199.27 364.976 196.72 366.076 194.16C371.276 196.78 377.566 198.78 383.296 196.77C385.396 195.95 385.876 192.89 383.466 192.13C377.506 190.04 369.896 191.18 365.346 186C362.006 181.34 363.586 173.95 368.706 171.22Z" fill="white"/>
</svg>
