<svg width="400" height="400" viewBox="0 0 400 400" fill="none" xmlns="http://www.w3.org/2000/svg">
<path d="M93.69 0H305.437C333.099 1.93007 359.746 15.3846 376.929 37.0629C390.591 52.979 397.549 73.4544 400 93.9863V303.553C398.226 324.979 390.789 346.349 376.648 362.881C359.296 384.504 332.507 397.539 304.929 400H95.3237C68.9294 397.874 43.2113 386.098 25.7183 366.21C10.338 349.651 1.83099 327.636 0 305.342V94.2375C1.83099 72.0281 10.2254 50.0699 25.5774 33.5664C42.6197 13.9021 67.7463 2.06993 93.69 0ZM183.888 65.1188C166.169 78.2375 158.676 100.307 152.084 120.419C130.028 116.616 104.845 113.594 85.1269 126.546C73.155 134.126 70.5069 150.21 75.3519 162.713C82.0844 180.307 95.2675 194.573 109.071 207.133C103.774 213.427 98.6763 219.916 93.7463 226.518C80.9575 225.231 67.0706 230.461 61.4366 242.629C50.1408 260.504 66.4506 286.825 87.38 285.651C97.2675 284.867 106.056 290.154 115.662 291.245C128.789 293.119 141.887 289.958 154.817 288.084C162.31 306.573 170.197 328.252 189.577 337.426C202.141 344.112 217.014 337.259 225.69 327.496C237.944 313.175 244.958 295.272 250.028 277.399C261.831 279.524 273.803 281.119 285.831 280.923C292.226 289.175 301.803 295.944 312.789 295.105C330.366 295.133 344.423 276.895 341.071 260.14C339.352 250.294 330.535 243.916 327.774 234.489C323.099 220.727 312.817 210.014 303.718 198.965C316.817 182.798 331.577 164.616 330.507 142.629C329.718 128.643 317.155 118.685 304.197 115.86C285.803 111.692 267.014 115.972 249.071 120.196C248.789 118.629 248.282 115.496 248 113.93C252.591 109.342 257.239 104.419 259.071 98.0419C264.873 83.2725 254.817 65.5944 240.028 60.8392C232.112 57.5944 223.521 59.8881 215.972 62.965C205.606 58.0979 193.239 57.8461 183.888 65.1188Z" fill="#FF0657"/>
<path d="M226.563 71.4957C239.69 67.6638 253.07 82.1532 248.056 94.8526C244.507 107.048 226.957 111.524 218.225 101.958C207.831 92.9226 213.408 74.4332 226.563 71.4957Z" fill="#FF0657"/>
<path d="M190.732 74.489C194.873 70.5728 200.845 71.4403 206.056 70.9365C202.676 79.4959 198.112 89.0903 202.507 98.1815C206.592 112.978 222.732 120.867 237.38 119.077L237.267 123.524C227.042 128.252 216.169 131.524 206.169 136.839C192.507 131.105 178.422 126.349 163.972 122.909C169.183 105.258 175.437 86.1253 190.732 74.489Z" fill="#FF0657"/>
<path d="M252.563 131.412C270.169 127.58 289.015 123.105 306.677 128.951C314.845 131.468 320.028 140.111 318.507 148.475C316.31 164.839 305.888 178.741 295.155 190.797C283.437 180.727 271.043 171.412 257.832 163.356C256.169 152.671 254.563 142.013 252.563 131.412Z" fill="#FF0657"/>
<path d="M97.324 133.035C113.832 126.489 132.113 129.427 149.24 131.44C146.254 145.958 144.423 160.671 143.043 175.44C133.775 182.685 125.043 190.545 116.535 198.657C103.381 185.035 87.2115 170.965 85.099 151.048C83.7753 142.853 89.9722 135.748 97.324 133.035Z" fill="#FF0657"/>
<path d="M161.071 134.546C171.409 137.175 181.606 140.28 191.719 143.693C179.38 150.685 167.268 158.126 155.578 166.154C156.874 155.525 158.62 144.952 161.071 134.546Z" fill="#FF0657"/>
<path d="M220.732 142.936C227.493 140.307 234.282 137.677 241.07 135.104C242.422 141.874 243.747 148.671 244.901 155.496C236.788 151.384 228.817 147.048 220.732 142.936Z" fill="#FF0657"/>
<path d="M154.366 181.846C170.479 169.482 187.944 158.937 206.113 149.846C220.028 155.44 233.296 162.405 246.197 169.958C248.282 190.937 248.197 212.112 245.916 233.063C234.733 240.755 222.958 247.608 210.901 253.874C191.38 246.601 172.845 237.175 154.93 226.657C154.056 211.72 154.197 196.783 154.366 181.846ZM192.226 174.265C180.479 177.986 171.211 189.09 171.043 201.538C169.916 216.587 181.888 231.272 197.183 232.559C213.803 235.133 230.563 221.118 230.676 204.419C232.676 184.727 211.043 167.972 192.226 174.265Z" fill="#FF0657"/>
<path d="M258.929 178.183C268.873 184.56 278.254 191.833 287.183 199.582C278.113 208.253 268.676 216.532 258.676 224.113C259.324 208.812 259.183 193.484 258.929 178.183Z" fill="#FF0657"/>
<path d="M195.296 185.902C206.845 181.79 220.225 191.804 218.479 204.112C219.099 218.126 200.197 225.818 189.859 217.175C178.761 209.343 181.888 189.427 195.296 185.902Z" fill="#FF0657"/>
<path d="M125.774 206.154C131.296 200.979 136.845 195.86 142.451 190.797C142.535 200.112 142.648 209.454 142.733 218.797C136.929 214.797 131.268 210.573 125.774 206.154Z" fill="#FF0657"/>
<path d="M257.183 239.553C270.929 230.126 283.662 219.358 295.69 207.889C303.746 215.721 310.225 224.924 315.746 234.658C307.352 235.329 298.422 236.532 292.254 242.854C284 249.091 282.084 259.749 281.409 269.399C271.803 268.896 262.254 267.665 252.789 265.959C254.535 257.203 255.944 248.393 257.183 239.553Z" fill="#FF0657"/>
<path d="M117.127 214.798C126.056 221.203 134.761 227.945 144.056 233.79C145.409 248.196 148 262.462 151.296 276.56C137.493 279.273 123.296 280.728 109.296 278.406C113.803 271.189 118.507 263.357 117.578 254.49C117.578 245.064 111.549 237.287 105.127 230.937C109.099 225.539 113.099 220.169 117.127 214.798Z" fill="#FF0657"/>
<path d="M82.7606 238.966C95.2112 234.547 109.042 247.386 105.521 260.085C103.465 274.351 82.3944 279.162 73.9156 267.806C65.7462 258.435 70.5069 242.043 82.7606 238.966Z" fill="#FF0657"/>
<path d="M156.563 241.37C169.521 248.391 182.591 255.216 196.168 260.922C185.38 265.65 174.422 269.985 163.183 273.593C160.62 262.936 158.253 252.223 156.563 241.37Z" fill="#FF0657"/>
<path d="M308.282 247.525C321.437 244.392 333.746 258.685 328.929 271.161C325.577 283.301 308.676 287.832 299.746 278.798C288.254 269.986 294.112 249.623 308.282 247.525Z" fill="#FF0657"/>
<path d="M226.056 259.496C232.112 255.692 238.197 251.888 244.31 248.14C243.352 253.202 242.366 258.237 241.38 263.301C236.282 261.958 231.155 260.755 226.056 259.496Z" fill="#FF0657"/>
<path d="M166.45 285.147C181.831 279.888 196.985 273.986 211.662 267.021C220.422 270.014 229.295 272.616 238.225 275.077C233.352 291.272 228.056 308.364 215.859 320.727C210.563 326.042 202.338 331.105 194.845 327.161C178.873 318.909 172.282 300.923 166.45 285.147Z" fill="#FF0657"/>
<path d="M183.887 65.1192C193.239 57.8466 205.605 58.0984 215.971 62.9654C223.521 59.8886 232.112 57.5949 240.028 60.8396C254.816 65.5948 264.873 83.2729 259.07 98.0423C257.239 104.42 252.591 109.343 248 113.93C248.281 115.497 248.788 118.63 249.07 120.196C267.014 115.972 285.802 111.693 304.196 115.86C317.155 118.685 329.718 128.644 330.506 142.63C331.577 164.616 316.816 182.798 303.718 198.965C312.816 210.014 323.098 220.728 327.774 234.49C330.535 243.917 339.351 250.294 341.07 260.14C344.422 276.895 330.366 295.134 312.788 295.105C301.802 295.944 292.225 289.175 285.831 280.924C273.802 281.119 261.831 279.525 250.028 277.399C244.957 295.273 237.943 313.175 225.69 327.497C217.014 337.259 202.14 344.112 189.577 337.427C170.196 328.252 162.31 306.574 154.816 288.084C141.887 289.959 128.788 293.119 115.661 291.245C106.056 290.154 97.267 284.867 87.3795 285.651C66.4501 286.825 50.1403 260.504 61.4361 242.63C67.0701 230.462 80.957 225.231 93.7458 226.518C98.6758 219.917 103.774 213.427 109.07 207.134C95.267 194.574 82.0839 180.308 75.3514 162.714C70.5064 150.21 73.1545 134.126 85.1264 126.546C104.845 113.595 130.028 116.616 152.084 120.42C158.676 100.308 166.168 78.2379 183.887 65.1192ZM226.563 71.4967C213.408 74.4342 207.831 92.9236 218.225 101.959C226.957 111.525 244.506 107.049 248.056 94.8536C253.07 82.1542 239.689 67.6648 226.563 71.4967ZM190.732 74.4898C175.436 86.1261 169.183 105.259 163.971 122.91C178.422 126.35 192.506 131.105 206.168 136.84C216.168 131.525 227.042 128.252 237.267 123.525L237.38 119.077C222.732 120.867 206.591 112.979 202.506 98.1823C198.112 89.0911 202.676 79.4967 206.056 70.9373C200.845 71.4411 194.873 70.5736 190.732 74.4898ZM252.563 131.413C254.563 142.014 256.168 152.672 257.831 163.357C271.042 171.413 283.436 180.728 295.154 190.798C305.887 178.742 316.31 164.84 318.506 148.476C320.028 140.112 314.844 131.469 306.676 128.952C289.014 123.105 270.168 127.581 252.563 131.413ZM97.3233 133.035C89.9714 135.749 83.7739 142.854 85.0983 151.049C87.2108 170.965 103.379 185.035 116.535 198.658C125.042 190.546 133.774 182.685 143.042 175.441C144.422 160.672 146.253 145.959 149.239 131.441C132.112 129.427 113.831 126.49 97.3233 133.035ZM161.07 134.546C158.62 144.952 156.873 155.525 155.577 166.154C167.267 158.126 179.38 150.685 191.718 143.693C181.605 140.28 171.408 137.175 161.07 134.546ZM220.732 142.937C228.816 147.049 236.788 151.385 244.901 155.497C243.746 148.672 242.422 141.875 241.07 135.105C234.281 137.679 227.493 140.308 220.732 142.937ZM154.366 181.847C154.196 196.784 154.056 211.72 154.929 226.658C172.845 237.175 191.38 246.602 210.901 253.875C222.957 247.609 234.732 240.755 245.915 233.064C248.196 212.112 248.281 190.937 246.196 169.959C233.295 162.406 220.028 155.441 206.112 149.847C187.943 158.937 170.478 169.483 154.366 181.847ZM258.929 178.182C259.183 193.483 259.323 208.812 258.676 224.112C268.676 216.532 278.112 208.252 287.183 199.581C278.253 191.832 268.873 184.56 258.929 178.182ZM125.774 206.154C131.267 210.574 136.929 214.798 142.732 218.798C142.648 209.455 142.535 200.112 142.45 190.798C136.845 195.86 131.295 200.979 125.774 206.154ZM257.183 239.553C255.943 248.392 254.535 257.203 252.788 265.959C262.253 267.665 271.802 268.895 281.408 269.399C282.084 259.749 283.999 249.091 292.253 242.854C298.422 236.532 307.351 235.329 315.746 234.658C310.225 224.924 303.746 215.72 295.689 207.889C283.661 219.357 270.929 230.126 257.183 239.553ZM117.126 214.798C113.098 220.169 109.098 225.539 105.126 230.937C111.549 237.287 117.577 245.064 117.577 254.49C118.506 263.357 113.802 271.189 109.295 278.406C123.295 280.728 137.493 279.273 151.295 276.56C148 262.462 145.408 248.196 144.056 233.79C134.76 227.944 126.056 221.203 117.126 214.798ZM82.7601 238.965C70.5064 242.042 65.7458 258.434 73.9151 267.805C82.3939 279.161 103.465 274.35 105.521 260.084C109.042 247.385 95.2108 234.546 82.7601 238.965ZM156.563 241.371C158.253 252.224 160.62 262.937 163.183 273.595C174.422 269.987 185.38 265.651 196.168 260.924C182.591 255.217 169.521 248.392 156.563 241.371ZM308.281 247.525C294.112 249.623 288.253 269.987 299.746 278.798C308.676 287.832 325.577 283.301 328.929 271.161C333.746 258.686 321.436 244.392 308.281 247.525ZM226.056 259.497C231.154 260.755 236.281 261.959 241.38 263.301C242.366 258.238 243.351 253.203 244.31 248.14C238.196 251.889 232.112 255.693 226.056 259.497ZM166.45 285.147C172.281 300.924 178.873 318.91 194.845 327.161C202.338 331.105 210.563 326.042 215.859 320.728C228.056 308.364 233.351 291.273 238.225 275.077C229.295 272.616 220.422 270.014 211.661 267.022C196.985 273.987 181.831 279.889 166.45 285.147Z" fill="white"/>
<path d="M192.225 174.265C211.042 167.972 232.676 184.727 230.676 204.419C230.563 221.119 213.802 235.133 197.183 232.559C181.887 231.272 169.915 216.587 171.042 201.539C171.211 189.09 180.479 177.986 192.225 174.265ZM195.295 185.902C181.887 189.427 178.76 209.342 189.859 217.175C200.197 225.818 219.099 218.125 218.479 204.112C220.225 191.804 206.845 181.79 195.295 185.902Z" fill="white"/>
</svg>
