<?xml version="1.0" encoding="UTF-8" ?>
<!DOCTYPE svg PUBLIC "-//W3C//DTD SVG 1.1//EN" "http://www.w3.org/Graphics/SVG/1.1/DTD/svg11.dtd">
<svg width="512pt" height="512pt" viewBox="0 0 512 512" version="1.1" xmlns="http://www.w3.org/2000/svg">
<g id="#98e53bff">
<path fill="#98e53b" opacity="1.00" d=" M 252.78 0.00 L 256.00 0.00 C 256.02 40.15 255.97 80.30 256.03 120.45 C 253.98 120.41 251.95 120.30 249.92 120.13 C 246.90 119.76 243.89 119.33 240.95 118.57 C 227.29 114.92 214.96 106.48 206.82 94.90 C 200.88 86.51 197.17 76.59 196.06 66.37 C 194.29 49.50 200.10 32.03 211.64 19.60 C 222.12 8.03 237.23 1.01 252.78 0.00 Z" />
<path fill="#98e53b" opacity="1.00" d=" M 240.95 393.49 C 243.98 392.71 247.06 392.16 250.15 391.65 C 252.10 391.63 254.05 391.58 256.00 391.58 C 256.00 431.72 255.99 471.86 256.00 512.00 L 253.08 512.00 C 239.30 511.20 225.86 505.66 215.64 496.37 C 205.43 487.21 198.62 474.48 196.45 460.95 C 194.79 450.04 196.18 438.71 200.46 428.54 C 207.56 411.42 222.97 398.03 240.95 393.49 Z" />
</g>
<g id="#27d072ff">
<path fill="#27d072" opacity="1.00" d=" M 256.00 0.00 L 259.05 0.00 C 273.00 0.87 286.65 6.48 296.87 16.07 C 310.59 28.65 317.94 47.81 315.92 66.35 C 314.87 76.58 311.10 86.48 305.19 94.88 C 297.07 106.47 284.74 114.99 271.06 118.55 C 266.15 119.81 261.09 120.44 256.03 120.45 C 255.97 80.30 256.02 40.15 256.00 0.00 Z" />
<path fill="#27d072" opacity="1.00" d=" M 256.00 391.58 C 261.07 391.52 266.14 392.18 271.05 393.46 C 289.01 398.01 304.38 411.36 311.49 428.45 C 315.82 438.59 317.19 449.93 315.55 460.83 C 313.45 474.40 306.57 487.16 296.38 496.37 C 286.25 505.65 272.89 511.10 259.22 512.00 L 256.00 512.00 C 255.99 471.86 256.00 431.72 256.00 391.58 Z" />
</g>
<g id="#e7dfddff">
<path fill="#e7dfdd" opacity="1.00" d=" M 100.59 120.96 C 132.39 102.72 164.24 84.58 196.06 66.37 C 197.17 76.59 200.88 86.51 206.82 94.90 C 176.95 111.99 147.06 129.03 117.20 146.13 C 113.88 136.52 108.13 127.78 100.59 120.96 Z" />
<path fill="#e7dfdd" opacity="1.00" d=" M 240.95 118.57 C 243.89 119.33 246.90 119.76 249.92 120.13 C 251.92 120.45 253.90 120.88 255.89 121.30 C 256.07 145.86 256.08 170.44 255.89 195.01 C 254.54 195.31 253.19 195.62 251.83 195.87 C 248.17 196.26 244.51 196.76 240.95 197.71 C 240.93 171.33 240.94 144.95 240.95 118.57 Z" />
<path fill="#e7dfdd" opacity="1.00" d=" M 100.79 210.13 C 108.41 203.20 114.16 194.27 117.43 184.51 C 146.97 197.14 176.47 209.85 206.03 222.45 C 200.35 230.90 196.86 240.79 195.97 250.93 C 164.24 237.33 132.51 223.74 100.79 210.13 Z" />
<path fill="#e7dfdd" opacity="1.00" d=" M 45.17 223.94 C 54.99 226.54 65.45 226.46 75.29 223.99 C 75.29 250.36 75.30 276.73 75.29 303.10 C 65.46 300.57 55.00 300.53 45.17 303.11 C 45.17 276.72 45.18 250.33 45.17 223.94 Z" />
<path fill="#e7dfdd" opacity="1.00" d=" M 100.53 316.66 C 132.38 298.48 164.22 280.27 196.06 262.08 C 197.16 272.30 200.85 282.24 206.80 290.64 C 176.91 307.68 147.05 324.77 117.17 341.84 C 113.85 332.23 108.07 323.49 100.53 316.66 Z" />
<path fill="#e7dfdd" opacity="1.00" d=" M 240.94 314.33 C 244.88 315.37 248.92 315.80 252.96 316.21 C 253.91 316.47 254.86 316.76 255.81 317.06 C 255.97 320.36 256.10 323.66 256.06 326.97 C 255.85 348.22 256.20 369.49 255.87 390.74 C 253.97 391.06 252.04 391.25 250.15 391.65 C 247.06 392.16 243.98 392.71 240.95 393.49 C 240.93 367.10 240.94 340.72 240.94 314.33 Z" />
<path fill="#e7dfdd" opacity="1.00" d=" M 100.58 406.10 C 108.10 399.28 113.85 390.54 117.19 380.96 C 144.95 396.81 172.71 412.67 200.46 428.54 C 196.18 438.71 194.79 450.04 196.45 460.95 C 164.52 442.61 132.51 424.43 100.58 406.10 Z" />
</g>
<g id="#dad0cbff">
<path fill="#dad0cb" opacity="1.00" d=" M 315.92 66.35 C 347.77 84.55 379.61 102.74 411.46 120.94 C 403.89 127.75 398.10 136.50 394.79 146.12 C 364.94 129.01 335.04 112.00 305.19 94.88 C 311.10 86.48 314.87 76.58 315.92 66.35 Z" />
<path fill="#dad0cb" opacity="1.00" d=" M 256.03 120.45 C 261.09 120.44 266.15 119.81 271.06 118.55 C 271.07 144.93 271.05 171.31 271.06 197.68 C 266.15 196.42 261.08 195.78 256.00 195.78 C 254.61 195.78 253.22 195.81 251.83 195.87 C 253.19 195.62 254.54 195.31 255.89 195.01 C 256.08 170.44 256.07 145.86 255.89 121.30 C 253.90 120.88 251.92 120.45 249.92 120.13 C 251.95 120.30 253.98 120.41 256.03 120.45 Z" />
<path fill="#dad0cb" opacity="1.00" d=" M 306.00 222.50 C 335.55 209.89 365.06 197.20 394.59 184.55 C 397.83 194.33 403.65 203.23 411.26 210.17 C 379.51 223.78 347.76 237.36 316.03 251.00 C 315.20 240.84 311.64 230.97 306.00 222.50 Z" />
<path fill="#dad0cb" opacity="1.00" d=" M 436.71 223.95 C 446.53 226.53 456.99 226.48 466.83 223.98 C 466.82 250.35 466.82 276.73 466.83 303.10 C 457.01 300.54 446.53 300.54 436.71 303.09 C 436.71 276.71 436.71 250.33 436.71 223.95 Z" />
<path fill="#dad0cb" opacity="1.00" d=" M 315.91 262.24 C 347.75 280.39 379.54 298.61 411.38 316.77 C 403.83 323.60 398.05 332.35 394.76 341.99 C 364.89 324.88 335.00 307.82 305.11 290.75 C 311.05 282.37 314.83 272.46 315.91 262.24 Z" />
<path fill="#dad0cb" opacity="1.00" d=" M 256.02 316.23 C 261.09 316.19 266.14 315.58 271.06 314.32 C 271.06 340.70 271.06 367.08 271.05 393.46 C 266.14 392.18 261.07 391.52 256.00 391.58 C 254.05 391.58 252.10 391.63 250.15 391.65 C 252.04 391.25 253.97 391.06 255.87 390.74 C 256.20 369.49 255.85 348.22 256.06 326.97 C 256.10 323.66 255.97 320.36 255.81 317.06 C 254.86 316.76 253.91 316.47 252.96 316.21 C 253.73 316.21 255.26 316.22 256.02 316.23 Z" />
<path fill="#dad0cb" opacity="1.00" d=" M 394.76 380.83 C 398.06 390.45 403.82 399.20 411.36 406.03 C 379.44 424.32 347.45 442.50 315.55 460.83 C 317.19 449.93 315.82 438.59 311.49 428.45 C 339.23 412.54 367.02 396.73 394.76 380.83 Z" />
</g>
<g id="#ff4a4aff">
<path fill="#ff4a4a" opacity="1.00" d=" M 16.88 123.90 C 28.22 112.02 44.59 105.15 61.02 105.42 C 75.52 105.55 89.86 111.21 100.59 120.96 C 108.13 127.78 113.88 136.52 117.20 146.13 C 121.44 158.45 121.55 172.14 117.43 184.51 C 114.16 194.27 108.41 203.20 100.79 210.13 C 93.59 216.75 84.73 221.47 75.29 223.99 C 65.45 226.46 54.99 226.54 45.17 223.94 C 30.69 220.21 17.78 210.90 9.69 198.34 C 3.88 189.44 0.62 178.99 0.00 168.40 L 0.00 162.76 C 0.82 148.36 6.78 134.25 16.88 123.90 Z" />
</g>
<g id="#d10763ff">
<path fill="#d10763" opacity="1.00" d=" M 411.46 120.94 C 423.16 110.31 439.18 104.61 454.96 105.50 C 470.74 106.28 486.07 113.63 496.56 125.44 C 505.78 135.61 511.16 149.00 512.00 162.67 L 512.00 168.33 C 511.28 182.03 505.88 195.46 496.71 205.68 C 488.86 214.57 478.29 220.96 466.83 223.98 C 456.99 226.48 446.53 226.53 436.71 223.95 C 427.29 221.45 418.47 216.73 411.26 210.17 C 403.65 203.23 397.83 194.33 394.59 184.55 C 390.45 172.17 390.53 158.46 394.79 146.12 C 398.10 136.50 403.89 127.75 411.46 120.94 Z" />
</g>
<g id="#ffd92eff">
<path fill="#ffd92e" opacity="1.00" d=" M 240.95 197.71 C 244.51 196.76 248.17 196.26 251.83 195.87 C 253.22 195.81 254.61 195.78 256.00 195.78 C 256.01 235.93 255.97 276.08 256.02 316.23 C 255.26 316.22 253.73 316.21 252.96 316.21 C 248.92 315.80 244.88 315.37 240.94 314.33 C 227.28 310.69 214.94 302.23 206.80 290.64 C 200.85 282.24 197.16 272.30 196.06 262.08 C 195.73 258.37 195.68 254.64 195.97 250.93 C 196.86 240.79 200.35 230.90 206.03 222.45 C 214.18 210.35 226.80 201.35 240.95 197.71 Z" />
</g>
<g id="#fcbe00ff">
<path fill="#fcbe00" opacity="1.00" d=" M 256.00 195.78 C 261.08 195.78 266.15 196.42 271.06 197.68 C 285.23 201.33 297.86 210.36 306.00 222.50 C 311.64 230.97 315.20 240.84 316.03 251.00 C 316.30 254.74 316.27 258.50 315.91 262.24 C 314.83 272.46 311.05 282.37 305.11 290.75 C 296.99 302.29 284.70 310.77 271.06 314.32 C 266.14 315.58 261.09 316.19 256.02 316.23 C 255.97 276.08 256.01 235.93 256.00 195.78 Z" />
</g>
<g id="#86beecff">
<path fill="#86beec" opacity="1.00" d=" M 45.17 303.11 C 55.00 300.53 65.46 300.57 75.29 303.10 C 84.64 305.49 93.35 310.23 100.53 316.66 C 108.07 323.49 113.85 332.23 117.17 341.84 C 121.53 354.40 121.55 368.40 117.19 380.96 C 113.85 390.54 108.10 399.28 100.58 406.10 C 90.54 415.15 77.42 420.76 63.91 421.52 C 47.25 422.63 30.29 416.29 18.36 404.62 C 7.39 394.15 0.86 379.39 0.00 364.30 L 0.00 358.73 C 0.67 346.67 4.84 334.78 12.19 325.15 C 20.29 314.36 32.12 306.49 45.17 303.11 Z" />
</g>
<g id="#344f79ff">
<path fill="#344f79" opacity="1.00" d=" M 436.71 303.09 C 446.53 300.54 457.01 300.54 466.83 303.10 C 477.61 305.86 487.54 311.71 495.22 319.75 C 505.11 329.94 510.91 343.72 512.00 357.82 L 512.00 364.31 C 511.21 377.96 505.82 391.33 496.65 401.51 C 485.92 413.64 470.12 421.09 453.93 421.60 C 438.43 422.23 422.84 416.43 411.36 406.03 C 403.82 399.20 398.06 390.45 394.76 380.83 C 390.48 368.34 390.47 354.47 394.76 341.99 C 398.05 332.35 403.83 323.60 411.38 316.77 C 418.57 310.27 427.34 305.58 436.71 303.09 Z" />
</g>
</svg>
