<?xml version="1.0" encoding="UTF-8" ?>
<!DOCTYPE svg PUBLIC "-//W3C//DTD SVG 1.1//EN" "http://www.w3.org/Graphics/SVG/1.1/DTD/svg11.dtd">
<svg width="512pt" height="512pt" viewBox="0 0 512 512" version="1.1" xmlns="http://www.w3.org/2000/svg">
<g id="#d5e8feff">
<path fill="#d5e8fe" opacity="1.00" d=" M 211.00 0.00 L 256.00 0.00 C 255.98 40.34 256.03 80.68 255.99 121.02 C 226.81 120.92 197.74 130.76 174.55 148.46 C 151.66 165.78 134.46 190.53 126.44 218.10 C 118.34 245.55 119.37 275.60 129.33 302.43 C 138.90 328.56 156.86 351.47 179.79 367.20 C 185.42 371.15 191.23 374.81 196.90 378.70 C 167.11 408.49 137.31 438.29 107.52 468.08 C 86.31 446.88 65.12 425.67 43.91 404.48 C 52.11 396.29 60.31 388.10 68.49 379.90 C 52.73 355.96 41.23 329.15 35.52 301.03 C 23.68 300.97 11.84 301.02 0.00 301.00 L 0.00 211.00 C 11.74 210.95 23.49 211.09 35.24 210.94 C 36.04 210.04 35.94 208.61 36.32 207.50 C 42.09 180.61 53.42 155.05 68.50 132.10 C 60.31 123.88 52.12 115.67 43.91 107.48 C 65.12 86.30 86.30 65.09 107.50 43.90 C 115.73 52.07 123.91 60.30 132.11 68.49 C 156.07 52.74 182.86 41.26 210.98 35.51 C 211.02 23.68 210.99 11.84 211.00 0.00 Z" />
</g>
<g id="#b5dbffff">
<path fill="#b5dbff" opacity="1.00" d=" M 256.00 0.00 L 301.00 0.00 C 300.99 11.76 301.01 23.51 300.99 35.27 C 329.11 41.07 355.93 52.50 379.92 68.25 C 388.20 60.13 396.19 51.71 404.62 43.76 C 425.82 64.96 447.00 86.19 468.25 107.35 C 460.31 115.81 451.86 123.80 443.74 132.09 C 459.49 156.07 470.89 182.90 476.74 211.01 C 488.49 210.99 500.24 211.00 512.00 211.00 L 512.00 301.00 C 500.24 300.99 488.49 301.01 476.74 300.99 C 470.88 329.08 459.51 355.91 443.75 379.87 C 451.90 388.06 460.08 396.23 468.26 404.39 C 447.25 425.84 425.77 446.86 404.66 468.23 C 374.52 438.59 344.85 408.46 314.86 378.66 C 324.34 372.25 334.17 366.27 342.90 358.82 C 361.29 343.33 375.41 322.81 383.31 300.10 C 394.00 269.79 393.19 235.67 381.13 205.88 C 368.68 174.67 344.11 148.56 313.73 134.20 C 295.79 125.49 275.87 121.40 255.99 121.02 C 256.03 80.68 255.98 40.34 256.00 0.00 Z" />
</g>
<g id="#61729bff">
<path fill="#61729b" opacity="1.00" d=" M 188.64 175.57 C 207.29 159.76 231.63 150.92 256.07 151.00 C 256.03 171.75 255.78 192.52 256.24 213.26 C 248.97 220.22 242.05 227.54 234.79 234.51 C 241.67 241.88 248.91 248.92 256.13 255.96 C 255.84 341.30 256.06 426.65 256.02 512.00 L 211.00 512.00 C 210.91 458.10 211.18 404.20 210.87 350.30 C 191.76 341.30 175.61 326.23 165.04 307.97 C 153.51 288.22 148.86 264.60 151.95 241.95 C 155.30 216.27 168.72 192.10 188.64 175.57 Z" />
</g>
<g id="#47568cff">
<path fill="#47568c" opacity="1.00" d=" M 256.07 151.00 C 273.52 150.49 290.51 155.99 306.04 163.55 C 289.45 180.13 272.94 196.79 256.24 213.26 C 255.78 192.52 256.03 171.75 256.07 151.00 Z" />
<path fill="#47568c" opacity="1.00" d=" M 277.39 277.06 C 301.01 253.29 324.75 229.65 348.45 205.96 C 355.83 221.21 361.32 237.83 361.00 254.95 C 361.42 270.31 357.90 285.67 351.51 299.60 C 341.29 321.86 323.01 340.12 300.98 350.74 C 301.03 404.49 300.99 458.24 301.00 512.00 L 256.02 512.00 C 256.06 426.65 255.84 341.30 256.13 255.96 C 263.36 262.85 270.28 270.06 277.39 277.06 Z" />
</g>
</svg>
