<?xml version="1.0" encoding="UTF-8" ?>
<!DOCTYPE svg PUBLIC "-//W3C//DTD SVG 1.1//EN" "http://www.w3.org/Graphics/SVG/1.1/DTD/svg11.dtd">
<svg width="512pt" height="512pt" viewBox="0 0 512 512" version="1.1" xmlns="http://www.w3.org/2000/svg">
<g id="#679df1ff">
<path fill="#679df1" opacity="1.00" d=" M 210.55 0.00 L 300.73 0.00 C 309.34 0.74 317.23 6.84 319.80 15.13 C 322.09 21.59 319.77 28.64 321.91 35.12 C 323.99 42.17 329.90 47.80 336.91 49.86 C 343.92 52.11 351.99 50.51 357.59 45.73 C 361.57 42.33 364.74 37.86 369.57 35.56 C 377.62 31.46 388.11 33.06 394.53 39.44 C 414.89 59.74 435.22 80.07 455.53 100.43 C 462.17 106.88 463.88 117.65 459.60 125.86 C 456.36 132.55 448.88 136.08 446.16 143.12 C 441.20 154.05 446.98 168.23 458.12 172.65 C 465.42 176.08 473.82 172.78 481.19 175.87 C 489.41 178.89 495.23 187.26 495.24 196.02 C 495.29 224.67 495.25 253.33 495.25 281.98 C 495.42 290.75 489.80 299.24 481.65 302.47 C 474.17 305.85 465.53 302.41 458.07 305.88 C 447.09 310.29 441.30 324.18 446.00 335.07 C 448.78 342.68 457.08 346.32 460.10 353.77 C 463.77 361.90 461.78 372.10 455.34 378.27 C 434.99 398.62 414.67 419.00 394.27 439.30 C 386.83 446.52 374.17 447.18 366.04 440.75 C 361.06 436.73 357.27 430.92 350.87 428.95 C 339.84 424.77 326.24 431.08 322.34 442.21 C 322.18 414.63 322.41 387.03 322.45 359.44 C 347.38 345.54 367.90 323.84 380.07 297.99 C 398.88 258.89 397.40 210.85 376.21 172.99 C 366.13 154.87 352.16 138.79 335.09 126.93 C 329.45 123.25 320.76 127.69 320.86 134.53 C 320.74 163.03 320.83 191.53 320.79 220.03 C 320.86 225.88 320.71 231.94 318.37 237.40 C 315.85 243.63 311.20 248.93 305.40 252.32 C 293.97 258.95 282.54 265.61 271.04 272.14 C 262.11 277.28 250.65 277.40 241.61 272.48 C 230.53 266.26 219.60 259.78 208.56 253.48 C 198.30 248.36 191.30 237.49 191.26 225.96 C 191.10 195.67 191.32 165.36 191.18 135.07 C 191.62 128.04 182.79 123.23 176.97 126.94 C 159.52 139.03 145.36 155.58 135.19 174.16 C 123.81 195.14 118.14 219.14 118.86 242.99 C 119.47 274.59 131.70 305.75 152.53 329.50 C 162.94 341.67 175.84 351.47 189.51 359.64 C 189.84 387.12 189.67 414.64 189.65 442.13 C 185.76 430.98 172.12 424.78 161.11 428.93 C 155.43 430.73 151.67 435.54 147.50 439.48 C 141.24 445.31 131.48 446.90 123.70 443.31 C 118.78 441.23 115.45 436.90 111.68 433.31 C 93.21 414.81 74.69 396.35 56.22 377.84 C 50.07 371.69 48.27 361.75 51.83 353.82 C 54.84 346.31 63.22 342.70 65.97 335.03 C 70.76 323.90 64.58 309.68 53.17 305.61 C 46.13 302.68 38.22 305.58 31.16 302.83 C 22.60 299.83 16.49 291.07 16.73 281.98 C 16.72 253.32 16.70 224.67 16.74 196.01 C 16.68 186.74 23.29 178.03 32.13 175.37 C 39.21 173.13 47.04 175.85 53.92 172.61 C 65.01 168.19 70.74 154.07 65.83 143.18 C 63.01 135.80 55.01 132.21 51.96 125.00 C 48.15 116.93 50.04 106.67 56.43 100.46 C 76.79 80.12 97.12 59.74 117.49 39.41 C 123.91 33.04 134.39 31.45 142.43 35.56 C 147.04 37.72 150.14 41.88 153.83 45.21 C 159.19 50.14 167.12 52.06 174.14 50.11 C 181.55 48.29 187.93 42.48 190.08 35.11 C 192.22 28.61 189.90 21.55 192.20 15.09 C 194.73 7.03 202.25 1.14 210.55 0.00 Z" />
</g>
<g id="#faca32ff">
<path fill="#faca32" opacity="1.00" d=" M 176.97 126.94 C 182.79 123.23 191.62 128.04 191.18 135.07 C 191.32 165.36 191.10 195.67 191.26 225.96 C 191.30 237.49 198.30 248.36 208.56 253.48 C 219.60 259.78 230.53 266.26 241.61 272.48 C 250.65 277.40 262.11 277.28 271.04 272.14 C 282.54 265.61 293.97 258.95 305.40 252.32 C 311.20 248.93 315.85 243.63 318.37 237.40 C 320.71 231.94 320.86 225.88 320.79 220.03 C 320.83 191.53 320.74 163.03 320.86 134.53 C 320.76 127.69 329.45 123.25 335.09 126.93 C 352.16 138.79 366.13 154.87 376.21 172.99 C 397.40 210.85 398.88 258.89 380.07 297.99 C 367.90 323.84 347.38 345.54 322.45 359.44 C 322.41 387.03 322.18 414.63 322.34 442.21 C 321.86 458.20 320.54 474.22 317.47 489.94 C 314.59 502.18 303.03 511.22 290.61 512.00 L 221.40 512.00 C 211.20 511.31 201.48 505.25 196.82 496.08 C 193.94 490.79 193.67 484.65 192.63 478.84 C 190.79 466.69 190.03 454.40 189.65 442.13 C 189.67 414.64 189.84 387.12 189.51 359.64 C 175.84 351.47 162.94 341.67 152.53 329.50 C 131.70 305.75 119.47 274.59 118.86 242.99 C 118.14 219.14 123.81 195.14 135.19 174.16 C 145.36 155.58 159.52 139.03 176.97 126.94 Z" />
</g>
</svg>
