<?xml version="1.0" encoding="UTF-8" ?>
<!DOCTYPE svg PUBLIC "-//W3C//DTD SVG 1.1//EN" "http://www.w3.org/Graphics/SVG/1.1/DTD/svg11.dtd">
<svg width="512pt" height="512pt" viewBox="0 0 512 512" version="1.1" xmlns="http://www.w3.org/2000/svg">
<g id="#ffaa20ff">
<path fill="#ffaa20" opacity="1.00" d=" M 253.26 0.00 L 256.01 0.00 C 255.96 29.68 256.08 59.36 255.96 89.04 C 229.66 89.12 203.54 99.25 184.30 117.21 C 166.02 133.97 153.92 157.33 150.99 181.98 C 148.08 205.29 153.20 229.53 165.46 249.59 C 173.35 262.56 183.99 273.88 196.59 282.36 C 168.91 292.17 144.15 309.77 125.02 331.99 C 98.20 363.16 82.79 404.26 83.68 445.45 C 63.22 426.45 45.46 404.45 31.98 379.96 C 11.57 343.35 0.61 301.62 0.00 259.73 L 0.00 249.39 C 1.16 208.46 12.01 167.79 31.98 132.01 C 52.37 95.40 81.72 63.77 116.99 41.09 C 157.22 14.70 205.18 0.48 253.26 0.00 Z" />
</g>
<g id="#ff8900ff">
<path fill="#ff8900" opacity="1.00" d=" M 256.01 0.00 L 265.75 0.00 C 291.03 0.97 316.18 5.62 340.08 13.94 C 389.95 31.19 434.11 64.41 464.64 107.44 C 493.47 147.43 509.91 196.03 512.00 245.23 L 512.00 266.78 C 510.28 305.37 499.96 343.61 481.51 377.59 C 467.77 403.12 449.54 426.13 428.24 445.75 C 429.30 441.98 428.43 437.95 428.31 434.10 C 426.55 400.56 414.45 367.71 394.28 340.87 C 374.53 314.38 347.06 293.77 316.09 282.22 C 338.18 267.05 354.23 243.27 359.69 217.00 C 364.82 193.65 361.50 168.61 350.70 147.30 C 338.42 122.79 316.28 103.38 290.30 94.58 C 279.26 90.93 267.61 88.64 255.96 89.04 C 256.08 59.36 255.96 29.68 256.01 0.00 Z" />
</g>
<g id="#ffdba9ff">
<path fill="#ffdba9" opacity="1.00" d=" M 184.30 117.21 C 203.54 99.25 229.66 89.12 255.96 89.04 C 256.08 159.51 255.92 229.99 256.04 300.47 C 259.73 300.66 263.41 300.50 267.09 300.26 C 263.41 300.76 259.70 301.04 255.98 300.83 C 234.95 300.60 213.92 294.39 196.59 282.36 C 183.99 273.88 173.35 262.56 165.46 249.59 C 153.20 229.53 148.08 205.29 150.99 181.98 C 153.92 157.33 166.02 133.97 184.30 117.21 Z" />
</g>
<g id="#ffc473ff">
<path fill="#ffc473" opacity="1.00" d=" M 255.96 89.04 C 267.61 88.64 279.26 90.93 290.30 94.58 C 316.28 103.38 338.42 122.79 350.70 147.30 C 361.50 168.61 364.82 193.65 359.69 217.00 C 354.23 243.27 338.18 267.05 316.09 282.22 C 301.54 292.09 284.63 298.58 267.09 300.26 C 263.41 300.50 259.73 300.66 256.04 300.47 C 255.92 229.99 256.08 159.51 255.96 89.04 Z" />
</g>
<g id="#4b5be6ff">
<path fill="#4b5be6" opacity="1.00" d=" M 267.09 300.26 C 284.63 298.58 301.54 292.09 316.09 282.22 C 347.06 293.77 374.53 314.38 394.28 340.87 C 414.45 367.71 426.55 400.56 428.31 434.10 C 428.43 437.95 429.30 441.98 428.24 445.75 C 420.42 452.79 412.25 459.44 403.61 465.45 L 403.50 465.51 L 403.42 465.59 C 400.63 467.62 397.74 469.52 394.83 471.38 C 394.68 471.47 394.39 471.66 394.25 471.76 C 393.58 472.18 392.26 473.03 391.59 473.45 L 391.51 473.52 L 391.43 473.58 C 374.04 484.36 355.41 493.22 335.92 499.49 C 335.73 499.56 335.34 499.69 335.14 499.76 C 333.52 500.49 331.72 500.66 330.06 501.28 C 329.86 501.40 329.47 501.65 329.27 501.78 C 328.70 501.89 327.55 502.11 326.98 502.21 C 326.78 502.34 326.38 502.59 326.17 502.72 C 323.76 503.05 321.42 503.76 319.06 504.32 C 318.86 504.44 318.45 504.66 318.24 504.78 C 303.61 508.09 288.80 510.69 273.82 511.55 L 276.49 512.00 L 256.01 512.00 C 255.98 441.61 256.03 371.22 255.98 300.83 C 259.70 301.04 263.41 300.76 267.09 300.26 Z" />
</g>
<g id="#7985ebff">
<path fill="#7985eb" opacity="1.00" d=" M 125.02 331.99 C 144.15 309.77 168.91 292.17 196.59 282.36 C 213.92 294.39 234.95 300.60 255.98 300.83 C 256.03 371.22 255.98 441.61 256.01 512.00 L 242.85 512.00 C 240.34 510.94 237.37 510.53 234.70 511.12 C 178.91 506.91 124.99 483.12 83.68 445.45 C 82.79 404.26 98.20 363.16 125.02 331.99 Z" />
<path fill="#7985eb" opacity="1.00" d=" M 335.14 499.76 C 335.34 499.69 335.73 499.56 335.92 499.49 C 335.73 499.56 335.34 499.69 335.14 499.76 Z" />
</g>
<g id="#774e177f">
<path fill="#774e17" opacity="0.50" d=" M 403.50 465.51 L 403.61 465.45 L 403.52 465.52 L 403.42 465.59 L 403.50 465.51 Z" />
<path fill="#774e17" opacity="0.50" d=" M 394.25 471.76 C 394.39 471.66 394.68 471.47 394.83 471.38 C 394.68 471.47 394.39 471.66 394.25 471.76 Z" />
<path fill="#774e17" opacity="0.50" d=" M 391.51 473.52 L 391.59 473.45 L 391.52 473.51 L 391.43 473.58 L 391.51 473.52 Z" />
<path fill="#774e17" opacity="0.50" d=" M 329.27 501.78 C 329.47 501.65 329.86 501.40 330.06 501.28 L 329.77 501.70 L 329.27 501.78 Z" />
<path fill="#774e17" opacity="0.50" d=" M 326.17 502.72 C 326.38 502.59 326.78 502.34 326.98 502.21 L 326.69 502.67 L 326.17 502.72 Z" />
<path fill="#774e17" opacity="0.50" d=" M 318.24 504.78 C 318.45 504.66 318.86 504.44 319.06 504.32 L 318.76 504.74 L 318.24 504.78 Z" />
<path fill="#774e17" opacity="0.50" d=" M 234.70 511.12 C 237.37 510.53 240.34 510.94 242.85 512.00 L 234.82 512.00 L 234.70 511.12 Z" />
</g>
</svg>
