<svg width="121" height="121" viewBox="0 0 121 121" fill="none" xmlns="http://www.w3.org/2000/svg">
<rect x="0.5" y="0.329224" width="120" height="120" rx="60" fill="#E00043" fill-opacity="0.8"/>
<path d="M52.1282 61.0209C52.507 62.6612 50.7076 63.9079 49.3077 63.0328L44.534 60.0498L38.573 69.5891C37.0163 72.0799 38.8156 75.3292 41.7514 75.3292H47.8437C48.6203 75.3292 49.25 75.9588 49.25 76.7354V81.4229C49.25 82.1995 48.6203 82.8292 47.8437 82.8292H41.7634C32.9352 82.8292 27.5484 73.097 32.2234 65.6167L38.1791 56.079L33.4067 53.0968C31.9909 52.2124 32.356 50.0545 33.9784 49.6799L46.8968 46.6975C47.9059 46.4645 48.9126 47.0937 49.1456 48.1025L52.1282 61.0209ZM63.6783 39.5856L68.5169 47.3289L63.7427 50.3121C62.3304 51.1943 62.688 53.3535 64.3144 53.7291L77.2328 56.7115C78.2491 56.9457 79.2502 56.3086 79.4816 55.3064L82.464 42.388C82.8386 40.7657 81.0589 39.4912 79.6435 40.3761L74.8755 43.3555L70.04 35.6115C65.643 28.5764 55.367 28.5602 50.96 35.6115L48.8549 38.9825C48.4436 39.6411 48.644 40.5084 49.3026 40.92L53.2775 43.4038C53.9361 43.8153 54.8037 43.6151 55.2153 42.9565L57.3201 39.5882C58.8098 37.2044 62.2388 37.2824 63.6783 39.5856ZM88.7759 65.6167L85.5515 60.4528C85.1401 59.7939 84.2723 59.5934 83.6135 60.005L79.6454 62.4846C78.9868 62.8962 78.7864 63.7637 79.198 64.4224L82.4281 69.5918C83.9817 72.0775 82.1871 75.3293 79.2481 75.3293H68V69.7065C68 68.0409 65.9794 67.2007 64.7992 68.3808L55.4242 77.7536C54.6919 78.4858 54.6919 79.673 55.4242 80.4052L64.7992 89.7789C65.9713 90.9512 68 90.13 68 88.4529V82.8292H79.2359C88.0571 82.8292 93.4549 73.103 88.7759 65.6167Z" fill="white"/>
</svg>
